<ttFont>
          <CharString index="0">
            40 32 16 56 -103 callgsubr
            return
          </CharString>
          <CharString index="1">
            rmoveto
            -106 callgsubr
            234 hmoveto
            -106 callgsubr
            return
          </CharString>
          <CharString index="2">
            rmoveto
            -105 callgsubr
            return
          </CharString>
          <CharString index="3">
            -71 callgsubr
            81 hlineto
            21 -130 rlineto
            -24 5 37 -8 31 hhcurveto
            33 1 7 28 -3 hvcurveto
            -91 478 rlineto
            20 -6 -20 6 -31 hhcurveto
            -15 -87 1 -22 -4 hvcurveto
            86 -122 rmoveto
            25 -138 rlineto
            -47 hlineto
            endchar
          </CharString>
          <CharString index="4">
            hstem
            35 111 111 137 vstem
            -107 callgsubr
            return
          </CharString>
          <CharString index="5">
            -30 callsubr
            200 61 96 27 callgsubr
            -61 82 -200 -199 -63 -82 -315 vhcurveto
            159 1 rmoveto
            -86 callgsubr
            return
          </CharString>
          <CharString index="6">
            rmoveto
            1 55 -57 124 -42 32 -108 -60 160 -172 rlineto
            return
          </CharString>
          <CharString index="7">
            rmoveto
            -236 vlineto
            -154 -6 -11 -77 -13 -6 26 181 vhcurveto
            -10 172 rlineto
            56 -2 -12 3 -45 hhcurveto
            -31 -14 -3 -49 hvcurveto
            -221 vlineto
            -199 39 -65 125 127 37 65 240 -2 vhcurveto
            -8 178 rlineto
            51 -1 -11 3 -44 hhcurveto
            -34 -12 -5 -32 hvcurveto
            endchar
          </CharString>
          <CharString index="8">
            -9 56 -7 40 68 callsubr
            vhcurveto
            67 callsubr
            -56 -90 callsubr
            endchar
          </CharString>
          <CharString index="9">
            -90 callgsubr
            129 -1 hvcurveto
            154 -55 callgsubr
            return
          </CharString>
          <CharString index="10">
            33 5 35 31 15 -6 14 -39 hvcurveto
            -244 hlineto
            -23 -7 -83 callsubr
            26 hhcurveto
            77 hlineto
            return
          </CharString>
          <CharString index="11">
            -76 callsubr
            -87 callsubr
          </CharString>
          <CharString index="12">
            -93 callgsubr
            5 23 93 -59 callgsubr
            endchar
          </CharString>
          <CharString index="13">
            hstem
            37 7 callgsubr
            vstem
            -100 callgsubr
            return
          </CharString>
          <CharString index="14">
            96 callsubr
            74 callgsubr
            -9 callsubr
            117 135 59 callgsubr
            hintmask 11110110
            141 -16 rmoveto
            -74 callsubr
            117 -335 vlineto
            -19 callgsubr
            -74 callsubr
            115 -432 vlineto
            -9 56 -7 40 68 callsubr
            vhcurveto
            11 callgsubr
            8 -53 7 -39 1 vhcurveto
            -158 -65 callgsubr
            rlineto
            -116 -73 callsubr
            hintmask 11101110
            79 callsubr
            hintmask 11110110
            -69 callgsubr
            hintmask 11101110
            80 -335 hlineto
            -19 callgsubr
            return
          </CharString>
          <CharString index="15">
            -105 callsubr
            hintmask 10111101
            -57 callgsubr
            hintmask 10111110
            -81 callsubr
            hintmask 10111101
            91 callsubr
            hintmask 01111110
            -81 callgsubr
            33 5 35 31 15 -6 14 -39 hvcurveto
            -244 hlineto
            -23 -7 -83 callsubr
            26 hhcurveto
            77 hlineto
            endchar
          </CharString>
          <CharString index="16">
            -85 callsubr
            -97 callsubr
            return
          </CharString>
          <CharString index="17">
            7 -40 -61 callgsubr
            vhcurveto
            return
          </CharString>
          <CharString index="18">
            667 194 rmoveto
            -72 callsubr
            196 -714 rlineto
            -63 callsubr
            return
          </CharString>
          <CharString index="19">
            952 -106 callsubr
            return
          </CharString>
          <CharString index="20">
            -1 311 -10 200 rlineto
            25 hlineto
            28 7 49 40 25 -18 6 -26 hvcurveto
            -177 hlineto
            -28 -36 callsubr
            27 -1 rrcurveto
            30 -511 hlineto
            endchar
          </CharString>
          <CharString index="21">
            133 -224 rmoveto
            -9 -2 37 -8 callsubr
            199 716 rlineto
            1 0 2 1 1 vhcurveto
            -22 callsubr
            -342 -89 342 rlineto
            -29 callsubr
            163 -494 -51 -219 rlineto
            -1 -2 0 -1 -2 vvcurveto
            return
          </CharString>
          <CharString index="22">
            -26 44 -45 callgsubr
            271 vlineto
            -7 128 rlineto
            67 hlineto
            return
          </CharString>
          <CharString index="23">
            -105 callsubr
            hintmask 10111010
            -57 callgsubr
            hintmask 10111100
            -81 callsubr
            hintmask 10111010
            10 callsubr
            return
          </CharString>
          <CharString index="24">
            -20 -31 1 hvcurveto
            -34 1 6 -10 return
          </CharString>
          <CharString index="25">
            -36 callgsubr
            hintmask 11110010
            -77 callsubr
            hintmask 11110100
            -37 callgsubr
          </CharString>
          <CharString index="26">
            -26 -6 -83 callsubr
            24 hhcurveto
            return
          </CharString>
          <CharString index="27">
            9 2 8 14 -1 40 rrcurveto
            31 -7 11 -9 -2 74 callsubr
            -1 return
          </CharString>
          <CharString index="28">
            -84 callsubr
            -269 -74 rmoveto
            hintmask 01111100
            -23 callsubr
          </CharString>
          <CharString index="29">
            -101 callsubr
            endchar
          </CharString>
          <CharString index="30">
            -14 259 rlineto
            71 -3 -15 7 -57 hhcurveto
            -40 -18 -7 -61 hvcurveto
            -330 vlineto
            -290 57 -96 179 180 55 96 349 -3 vhcurveto
            return
          </CharString>
          <CharString index="31">
            rmoveto
            -25 -4 -25 -46 callsubr
            25 -1 rrcurveto
            189 hlineto
            42 6 49 40 -14 callgsubr
            -26 1 vhcurveto
            -30 hlineto
            return
          </CharString>
          <CharString index="32">
            -17 callgsubr
            -119 -54 -44 -108 56 callgsubr
            hvcurveto
            -66 callgsubr
            56 callsubr
            hvcurveto
            -33 callsubr
          </CharString>
          <CharString index="33">
            -9 4 19 -7 40 hhcurveto
            -73 callgsubr
            return
          </CharString>
          <CharString index="34">
            hlineto
            112 -18 -6 16 -10 hhcurveto
            -16 -23 -6 -9 -7 hvcurveto
            return
          </CharString>
          <CharString index="35">
            -108 429 rlineto
            36 -9 -42 -7 callgsubr
            -6 hvcurveto
            -96 -438 -135 537 rlineto
            30 -7 -7 callsubr
            -27 6 hvcurveto
            return
          </CharString>
          <CharString index="36">
            -97 callsubr
            endchar
          </CharString>
          <CharString index="37">
            21 -1 147 hvcurveto
            16 45 rlineto
            51 -32 5 -40 vhcurveto
            return
          </CharString>
          <CharString index="38">
            -38 -5 40 0 66 hhcurveto
            40 -1 7 30 4 hvcurveto
            31 207 rlineto
            return
          </CharString>
          <CharString index="39">
            -10 callsubr
            -29 11 31 -39 vhcurveto
            1 -1 99 callsubr
            -7 6 -12 -5 -26 -31 -26 -31 4 -5 5 -7 return
          </CharString>
          <CharString index="40">
            15 9 -35 -150 -164 -8 -12 -90 -16 -8 27 149 return
          </CharString>
          <CharString index="41">
            41 callgsubr
            67 callsubr
            -64 -90 callsubr
            -380 vlineto
            return
          </CharString>
          <CharString index="42">
            -18 -148 hhcurveto
            -25 -51 rlineto
            -46 15 -6 55 vhcurveto
            return
          </CharString>
          <CharString index="43">
            136 hintmask 11011000
            -89 callsubr
            hintmask 11101000
            145 609 rlineto
            return
          </CharString>
          <CharString index="44">
            -29 7 48 callgsubr
            25 13 7 31 7 hvcurveto
            90 353 106 -355 rlineto
            -29 8 48 callgsubr
            27 11 7 29 7 hvcurveto
            return
          </CharString>
          <CharString index="45">
            -32 callgsubr
            16 0 -66 -46 hvcurveto
            1 -304 rlineto
            -9 63 -15 callsubr
            return
          </CharString>
          <CharString index="46">
            -10 callgsubr
            -52 callsubr
            return
          </CharString>
          <CharString index="47">
            122 18 -70 callsubr
            return
          </CharString>
          <CharString index="48">
            552 -102 callgsubr
            return
          </CharString>
          <CharString index="49">
            -141 13 -65 callsubr
            return
          </CharString>
          <CharString index="50">
            16 -16 rlineto
            return
          </CharString>
          <CharString index="51">
            157 89 callsubr
            9 -5 -27 -41 callsubr
            -496 -62 callsubr
            73 callgsubr
            vhcurveto
            52 callsubr
            return
          </CharString>
          <CharString index="52">
            15 callgsubr
            59 callgsubr
            hintmask 11110110
            355 hmoveto
            -9 56 -7 40 68 callsubr
            vhcurveto
            457 vlineto
            35 -77 4 -39 vhcurveto
            -143 hlineto
            return
          </CharString>
          <CharString index="53">
            234 hmoveto
            -74 callgsubr
            return
          </CharString>
          <CharString index="54">
            5 -21 528 -20 276 -35 callgsubr
            return
          </CharString>
          <CharString index="55">
            -103 callgsubr
            -25 6 -17 11 -11 vhcurveto
            -18 -45 rlineto
            -69 vlineto
            return
          </CharString>
          <CharString index="56">
            -16 16 rlineto
            return
          </CharString>
          <CharString index="57">
            rmoveto
            -33 53 callgsubr
            -1 414 197 -415 rlineto
            -36 13 53 -1 12 hhcurveto
            -64 callgsubr
            30 hvcurveto
            410 vlineto
            -16 301 rlineto
            29 -1 -12 -35 callsubr
            -32 -7 -29 hvcurveto
            6 -419 -179 420 rlineto
            35 -22 -23 0 -23 hhcurveto
            -40 -32 -7 -30 hvcurveto
            endchar
          </CharString>
          <CharString index="58">
            828 -101 callgsubr
            return
          </CharString>
          <CharString index="59">
            hlineto
            32 6 18 46 21 -8 10 -28 1 hvcurveto
            -147 return
          </CharString>
          <CharString index="60">
            hlineto
            42 3 47 41 -14 callgsubr
            -34 1 vhcurveto
            return
          </CharString>
          <CharString index="61">
            -23 callgsubr
            6 -15 return
          </CharString>
          <CharString index="62">
            rmoveto
            -74 43 -22 53 53 43 22 74 74 -43 22 -53 -53 -43 -22 -74 vhcurveto
            return
          </CharString>
          <CharString index="63">
            792 -102 callgsubr
            return
          </CharString>
          <CharString index="64">
            -42 callsubr
            -82 -125 82 rlineto
            return
          </CharString>
          <CharString index="65">
            rmoveto
            13 -54 102 -90 49 -20 49 20 102 90 13 54 -39 32 -125 return
          </CharString>
          <CharString index="66">
            7 -40 hhcurveto
            -61 callgsubr
            hvcurveto
            return
          </CharString>
          <CharString index="67">
            -22 callgsubr
            -50 callgsubr
          </CharString>
          <CharString index="68">
            7 -40 hhcurveto
            return
          </CharString>
          <CharString index="69">
            -61 30 -52 16 27 vvcurveto
            29 21 13 24 1 vhcurveto
            23 28 -8 -9 23 hvcurveto
            38 -19 rlineto
            return
          </CharString>
          <CharString index="70">
            57 -10 24 -4 18 -13 -6 -34 rlinecurve
            -6 -33 -22 -7 -23 4 -13 -74 rcurveline
            65 -12 57 17 17 92 16 91 -49 36 -65 12 return
          </CharString>
          <CharString index="71">
            -6 -24 -46 callsubr
            return
          </CharString>
          <CharString index="72">
            -39 callsubr
            -40 return
          </CharString>
          <CharString index="73">
            rmoveto
            -177 189 161 189 -32 39 -54 -13 -170 -166 -20 -49 20 -49 186 -166 54 -13 rlineto
            return
          </CharString>
          <CharString index="74">
            -38 callsubr
            1 1 -1 1 hhcurveto
            endchar
          </CharString>
          <CharString index="75">
            123 -28 callgsubr
            return
          </CharString>
          <CharString index="76">
            36 -15 -54 89 callgsubr
            -40 -37 -7 -29 16 hvcurveto
            return
          </CharString>
          <CharString index="77">
            76 callgsubr
            -291 63 -96 199 return
          </CharString>
          <CharString index="78">
            9 -2 -54 18 callgsubr
            -12 -7 -9 3 hvcurveto
            -2 vlineto
            return
          </CharString>
          <CharString index="79">
            hlineto
            36 1 29 56 19 -6 17 -34 hvcurveto
            return
          </CharString>
          <CharString index="80">
            vlineto
            -51 callsubr
            return
          </CharString>
          <CharString index="81">
            -285 -107 -21 18 callsubr
            40 30 callgsubr
            65 -128 -61 callsubr
            endchar
          </CharString>
          <CharString index="82">
            -58 -43 -7 -22 -32 vhcurveto
            20 -73 rlineto
            50 hlineto
            6 20 16 3 44 hhcurveto
            return
          </CharString>
          <CharString index="83">
            rmoveto
            108 -27 callsubr
            return
          </CharString>
          <CharString index="84">
            -91 callsubr
            endchar
          </CharString>
          <CharString index="85">
            9 2 -45 18 callgsubr
            -7 -7 -9 -2 hvcurveto
            -78 return
          </CharString>
          <CharString index="86">
            rmoveto
            10 -4 10 21 7 40 6 30 -5 6 55 callsubr
            return
          </CharString>
          <CharString index="87">
            100 callgsubr
            -3 callgsubr
            return
          </CharString>
          <CharString index="88">
            101 -105 callsubr
            return
          </CharString>
          <CharString index="89">
            30 callsubr
            176 -24 callgsubr
            return
          </CharString>
          <CharString index="90">
            121 213 -16 callsubr
            return
          </CharString>
          <CharString index="91">
            121 177 120 return
          </CharString>
          <CharString index="92">
            32 callsubr
            160 -48 48 -95 return
          </CharString>
          <CharString index="93">
            185 -141 105 return
          </CharString>
          <CharString index="94">
            rmoveto
            219 hlineto
            39 0 35 29 19 -10 13 -31 hvcurveto
            -122 hlineto
            -1 200 -8 200 rlineto
            25 -1 -26 5 -31 hhcurveto
            -33 -7 -5 -26 hvcurveto
            -479 vlineto
            endchar
          </CharString>
          <CharString index="95">
            133 -133 147 179 130 -130 142 return
          </CharString>
          <CharString index="96">
            5 -21 350 14 callsubr
            return
          </CharString>
          <CharString index="97">
            58 -29 35 -14 -27 vvcurveto
            -26 -15 -28 -41 -35 return
          </CharString>
          <CharString index="98">
            hstemhm
            -2 230 -135 135 return
          </CharString>
          <CharString index="99">
            -21 callgsubr
            31 7 7 9 2 hvcurveto
            return
          </CharString>
          <CharString index="100">
            -28 -35 callsubr
            -34 -7 return
          </CharString>
          <CharString index="101">
            14 callgsubr
            127 -713 -97 callgsubr
          </CharString>
          <CharString index="102">
            536 -102 callgsubr
            return
          </CharString>
          <CharString index="103">
            29 53 5 134 -18 42 rlineto
            -58 hlineto
            -18 -42 5 -134 29 -53 rlineto
            return
          </CharString>
          <CharString index="104">
            66 3 -5 -65 -63 -7 -12 -67 -44 -34 3 2 -34 hvcurveto
            -92 vlineto
            -5 43 40 -4 32 hhcurveto
            166 48 72 98 58 -14 43 -37 30 hvcurveto
            return
          </CharString>
          <CharString index="105">
            4 callgsubr
            vlineto
            return
          </CharString>
          <CharString index="106">
            43 6 7 48 hvcurveto
            32 6 1 26 60 vvcurveto
            19 -8 12 -22 -2 vhcurveto
            return
          </CharString>
          <CharString index="107">
            -40 callgsubr
            137 120 19 -20 hstemhm
            return
          </CharString>
          <CharString index="108">
            -21 -35 -35 -15 -26 hhcurveto
            -16 0 return
          </CharString>
          <CharString index="109">
            5 -21 784 -20 return
          </CharString>
          <CharString index="110">
            14 callgsubr
            -116 -519 -136 533 rlineto
            return
          </CharString>
          <CharString index="111">
            rmoveto
            -110 -208 120 -30 32 42 23 134 -15 53 rlineto
            return
          </CharString>
          <CharString index="112">
            -28 29 callgsubr
            116 93 return
          </CharString>
          <CharString index="113">
            41 7 49 40 16 -9 15 -49 hvcurveto
            return
          </CharString>
          <CharString index="114">
            2 callsubr
            hstem
            return
          </CharString>
          <CharString index="115">
            2 callgsubr
            74 callgsubr
            hstem
            return
          </CharString>
          <CharString index="116">
            0 -17 callsubr
            74 callgsubr
            hstem
            return
          </CharString>
          <CharString index="117">
            13 -326 hlineto
            return
          </CharString>
          <CharString index="118">
            35 callgsubr
            276 -20 hstemhm
            32 -12 callsubr
            hintmask 11101100
            return
          </CharString>
          <CharString index="119">
            vvcurveto
            -3 callgsubr
            22 81 16 16 -32 49 callsubr
          </CharString>
          <CharString index="120">
            5 96 -86 -21 433 95 return
          </CharString>
          <CharString index="121">
            -16 callsubr
            83 callgsubr
            return
          </CharString>
          <CharString index="122">
            5 -16 96 -59 -21 512 -20 return
          </CharString>
          <CharString index="123">
            5 -21 244 121 return
          </CharString>
          <CharString index="124">
            -16 98 329 101 return
          </CharString>
          <CharString index="125">
            28 callgsubr
            hstem
            return
          </CharString>
          <CharString index="126">
            -11 -21 37 82 callsubr
            269 -20 -9 callsubr
            59 callgsubr
            hintmask 01110110
            return
          </CharString>
          <CharString index="127">
            136 hintmask 11101000
            -20 callgsubr
            145 609 return
          </CharString>
          <CharString index="128">
            rmoveto
            -32 136 vlineto
            216 915 rlineto
            107 -105 vlineto
            return
          </CharString>
          <CharString index="129">
            -21 callgsubr
            40 return
          </CharString>
          <CharString index="130">
            234 hmoveto
            -46 callgsubr
          </CharString>
          <CharString index="131">
            hstemhm
            132 110 115 -14 callsubr
            return
          </CharString>
          <CharString index="132">
            -8 -16 98 334 96 return
          </CharString>
          <CharString index="133">
            -16 112 566 106 return
          </CharString>
          <CharString index="134">
            114 -239 rlineto
            1 vlineto
            -29 12 40 -1 9 hhcurveto
            33 0 7 26 hvcurveto
            273 vlineto
            return
          </CharString>
          <CharString index="135">
            -130 rmoveto
            41 callsubr
            return
          </CharString>
          <CharString index="136">
            103 -83 101 hstemhm
            return
          </CharString>
          <CharString index="137">
            136 vstem
            return
          </CharString>
          <CharString index="138">
            -1 hlineto
            3 -4 -43 99 callgsubr
            return
          </CharString>
          <CharString index="139">
            -7 40 68 callsubr
            vhcurveto
            304 vlineto
            return
          </CharString>
          <CharString index="140">
            122 122 120 return
          </CharString>
          <CharString index="141">
            143 113 144 return
          </CharString>
          <CharString index="142">
            61 -7 40 -64 callgsubr
            return
          </CharString>
          <CharString index="143">
            112 144 return
          </CharString>
          <CharString index="144">
            hmoveto
            322 hlineto
            45 0 46 39 22 -12 14 -37 hvcurveto
            -194 hlineto
            -1 return
          </CharString>
          <CharString index="145">
            551 -21 238 -20 hstem
            return
          </CharString>
          <CharString index="146">
            -6 90 361 86 return
          </CharString>
          <CharString index="147">
            5 96 326 95 return
          </CharString>
          <CharString index="148">
            -57 callsubr
            124 return
          </CharString>
          <CharString index="149">
            80 171 101 15 callgsubr
            -141 245 return
          </CharString>
          <CharString index="150">
            rmoveto
            17 17 rlineto
            91 -27 callsubr
            return
          </CharString>
          <CharString index="151">
            -20 hstemhm
            42 34 callsubr
            return
          </CharString>
          <CharString index="152">
            16 callgsubr
            32 109 return
          </CharString>
          <CharString index="153">
            61 callsubr
            245 82 callsubr
            return
          </CharString>
          <CharString index="154">
            200 216 return
          </CharString>
          <CharString index="155">
            -56 -216 return
          </CharString>
          <CharString index="156">
            -56 callgsubr
            endchar
          </CharString>
          <CharString index="157">
            hlineto
            51 5 24 65 2 hvcurveto
            1 19 -10 11 -44 1 rrcurveto
            return
          </CharString>
          <CharString index="158">
            32 25 -56 -221 -247 -10 -16 -103 -59 -16 0 15 return
          </CharString>
          <CharString index="159">
            -19 38 rlineto
            -1 0 1 1 hvcurveto
            return
          </CharString>
          <CharString index="160">
            16 16 rlineto
            92 -27 callsubr
            return
          </CharString>
          <CharString index="161">
            114 102 110 vstem
            return
          </CharString>
          <CharString index="162">
            -9 6 rrcurveto
            -1 hlineto
            return
          </CharString>
          <CharString index="163">
            54 -58 51 -55 27 return
          </CharString>
          <CharString index="164">
            25 26 -3 -10 22 return
          </CharString>
          <CharString index="165">
            101 callgsubr
            46 return
          </CharString>
          <CharString index="166">
            124 hstem
            return
          </CharString>
          <CharString index="167">
            rmoveto
            24 8 -24 -44 -73 -30 -1 -81 hvcurveto
            -96 57 vlineto
            return
          </CharString>
          <CharString index="168">
            -219 -21 return
          </CharString>
          <CharString index="169">
            5 -21 300 137 228 119 hstem
            45 return
          </CharString>
          <CharString index="170">
            rlineto
            29 -1 -32 -35 callsubr
            -11 -7 -30 hvcurveto
            return
          </CharString>
          <CharString index="171">
            -7 40 -64 callgsubr
            31 vhcurveto
            return
          </CharString>
          <CharString index="172">
            45 55 callgsubr
            return
          </CharString>
          <CharString index="173">
            7 callsubr
            45 return
          </CharString>
          <CharString index="174">
            11 callgsubr
            9 return
          </CharString>
          <CharString index="175">
            -64 callgsubr
            9 return
          </CharString>
          <CharString index="176">
            0 121 return
          </CharString>
          <CharString index="177">
            -21 432 return
          </CharString>
          <CharString index="178">
            9 7 12 28 69 callgsubr
            hvcurveto
            -96 hlineto
            return
          </CharString>
          <CharString index="179">
            5 70 callsubr
            96 return
          </CharString>
          <CharString index="180">
            -40 -15 -7 return
          </CharString>
          <CharString index="181">
            vhcurveto
            -1 -1 return
          </CharString>
          <CharString index="182">
            144 hstem
            return
          </CharString>
          <CharString index="183">
            -10 -23 92 callgsubr
            return
          </CharString>
          <CharString index="184">
            -31 -16 96 336 96 18 callsubr
            return
          </CharString>
          <CharString index="185">
            10 -21 795 -20 hstem
            return
          </CharString>
          <CharString index="186">
            -56 -113 60 callgsubr
            return
          </CharString>
          <CharString index="187">
            -40 callgsubr
            hstem
            return
          </CharString>
          <CharString index="188">
            -6 99 691 -20 hstem
            return
          </CharString>
          <CharString index="189">
            70 callsubr
            80 return
          </CharString>
          <CharString index="190">
            -46 -216 return
          </CharString>
          <CharString index="191">
            hlineto
            -161 -1 -47 -48 -215 vvcurveto
            return
          </CharString>
          <CharString index="192">
            -176 139 738 135 hstem
            return
          </CharString>
          <CharString index="193">
            -146 14 callgsubr
            return
          </CharString>
          <CharString index="194">
            94 callgsubr
            vstem
            return
          </CharString>
          <CharString index="195">
            1 5 -80 hvcurveto
            -124 vlineto
            -7 65 return
          </CharString>
          <CharString index="196">
            496 rmoveto
            return
          </CharString>
          <CharString index="197">
            246 -20 return
          </CharString>
          <CharString index="198">
            10 callsubr
            -285 -74 rmoveto
            return
          </CharString>
          <CharString index="199">
            -1 -32 6 -40 hhcurveto
            -40 -9 -6 return
          </CharString>
          <CharString index="200">
            83 74 83 168 83 74 83 return
          </CharString>
          <CharString index="201">
            vlineto
            -3 66 -5 66 -3 67 rrcurveto
            return
          </CharString>
          <CharString index="202">
            -332 -124 hlineto
            return
          </CharString>
          <CharString index="203">
            -11 -21 448 80 return
          </CharString>
          <CharString index="204">
            hlineto
            -10 177 rlineto
            return
          </CharString>
          <CharString index="205">
            -20 132 144 return
          </CharString>
          <CharString index="206">
            0 -1 1 vhcurveto
            return
          </CharString>
          <CharString index="207">
            144 hstemhm
            return
          </CharString>
          <CharString index="208">
            rlineto
            -99 hlineto
            return
          </CharString>
        <CharString name=".notdef">
          -216 endchar
        </CharString>
        <CharString name=".null">
          -482 endchar
        </CharString>
        <CharString name="A">
          57 16 callsubr
          hstem
          151 746 rmoveto
          -4 -26 -22 -119 -97 -579 rrcurveto
          -69 callsubr
          140 hlineto
          35 -206 rlineto
          -31 5 50 22 callsubr
          2 7 31 -5 hvcurveto
          -69 409 -68 307 rlineto
          24 -5 -30 -39 callsubr
          -19 -124 2 -25 -4 hvcurveto
          117 -108 rmoveto
          53 -289 101 callsubr
          endchar
        </CharString>
        <CharString name="AE">
          283 69 callsubr
          -116 -21 244 121 -15 -16 callsubr
          hstemhm
          321 141 hintmask 01101100
          28 22 rmoveto
          -69 callsubr
          119 -212 hlineto
          hintmask 10011100
          -87 callgsubr
          -70 callgsubr
          -354 hlineto
          -88 -83 0 -60 -8 hvcurveto
          124 -54 rmoveto
          53 hlineto
          hintmask 10101100
          -289 -99 vlineto
          endchar
        </CharString>
        <CharString name="AE_smcp">
          75 0 96 -86 -21 239 96 103 95 hstemhm
          228 112 hintmask 01111000
          35 23 -71 callgsubr
          68 -126 hlineto
          hintmask 10111000
          -25 13 0 38 vhcurveto
          201 -48 callsubr
          132 -32 callsubr
          -52 callgsubr
          -243 hlineto
          -24 -87 1 -22 -4 hvcurveto
          85 -90 rmoveto
          25 -164 -47 hlineto
          endchar
        </CharString>
        <CharString name="A_smcp">
          -79 10 -21 539 -20 hstem
          13 23 -104 callsubr
        </CharString>
        <CharString name="A_smcpacute">
          -90 78 callsubr
          188 -59 callsubr
          -129 -550 -104 callsubr
        </CharString>
        <CharString name="A_smcpcircunflex">
          -76 78 callsubr
          71 -49 callgsubr
          -3 -597 -104 callsubr
        </CharString>
        <CharString name="A_smcpdieresis">
          -27 10 -21 651 75 callsubr
          38 39 callgsubr
          vstem
          38 -88 callgsubr
          -195 -689 -104 callsubr
        </CharString>
        <CharString name="A_smcpgrave">
          -90 78 callsubr
          229 -44 callgsubr
          -170 -529 -104 callsubr
        </CharString>
        <CharString name="A_smcpring">
          -87 10 -21 587 102 callgsubr
          hstem
          103 102 callgsubr
          vstem
          103 672 -72 callgsubr
          -137 -649 -104 callsubr
        </CharString>
        <CharString name="A_smcptilde">
          -61 10 -21 635 29 callsubr
          hintmask 11000000
          110 624 rmoveto
          hintmask 10100000
          122 -14 -70 callsubr
          hintmask 11000000
          -141 45 -65 callsubr
          -65 -601 -104 callsubr
        </CharString>
        <CharString name="Aacute">
          46 32 callgsubr
          268 -44 callsubr
          -71 -67 rmoveto
          -4 -26 -22 -119 -97 -579 rrcurveto
          -69 callsubr
          140 hlineto
          35 -206 rlineto
          -31 5 50 22 callsubr
          2 7 31 -5 hvcurveto
          -69 409 -68 307 rlineto
          24 -5 -30 -39 callsubr
          -19 -124 2 -25 -4 hvcurveto
          117 -108 rmoveto
          53 -289 101 callsubr
          endchar
        </CharString>
        <CharString name="Acircumflex">
          54 32 callgsubr
          142 -49 callsubr
          48 -114 rmoveto
          -4 -26 -22 -119 -97 -579 rrcurveto
          -69 callsubr
          140 hlineto
          35 -206 rlineto
          -31 5 50 22 callsubr
          2 7 31 -5 hvcurveto
          -69 409 -68 307 rlineto
          24 -5 -30 -39 callsubr
          -19 -124 2 -25 -4 hvcurveto
          117 -108 rmoveto
          53 -289 101 callsubr
          endchar
        </CharString>
        <CharString name="Adieresis">
          57 16 callsubr
          531 75 callsubr
          79 39 callgsubr
          vstem
          79 -88 callsubr
          -162 -206 rmoveto
          -4 -26 -22 -119 -97 -579 rrcurveto
          -69 callsubr
          140 hlineto
          35 -206 rlineto
          -31 5 50 22 callsubr
          2 7 31 -5 hvcurveto
          -69 409 -68 307 rlineto
          24 -5 -30 -39 callsubr
          -19 -124 2 -25 -4 hvcurveto
          117 -108 rmoveto
          53 -289 101 callsubr
          endchar
        </CharString>
        <CharString name="Agrave">
          47 32 callgsubr
          298 -29 callgsubr
          -101 -46 rmoveto
          -4 -26 -22 -119 -97 -579 rrcurveto
          -69 callsubr
          140 hlineto
          35 -206 rlineto
          -31 5 50 22 callsubr
          2 7 31 -5 hvcurveto
          -69 409 -68 307 rlineto
          24 -5 -30 -39 callsubr
          -19 -124 2 -25 -4 hvcurveto
          117 -108 rmoveto
          53 -289 101 callsubr
          endchar
        </CharString>
        <CharString name="Aring">
          47 16 callsubr
          444 102 callgsubr
          hstem
          167 102 callgsubr
          vstem
          167 889 -72 callgsubr
          -77 -143 rmoveto
          -4 -26 -22 -119 -97 -579 rrcurveto
          -69 callsubr
          140 hlineto
          35 -206 rlineto
          -31 5 50 22 callsubr
          2 7 31 -5 hvcurveto
          -69 409 -68 307 rlineto
          24 -5 -30 -39 callsubr
          -19 -124 2 -25 -4 hvcurveto
          117 -108 rmoveto
          53 -289 101 callsubr
          endchar
        </CharString>
        <CharString name="Atilde">
          49 16 callsubr
          515 29 callsubr
          hintmask 11100000
          148 864 rmoveto
          hintmask 11010000
          -60 callsubr
          hintmask 11100000
          -58 callsubr
          3 -118 rmoveto
          -4 -26 -22 -119 -97 -579 rrcurveto
          -69 callsubr
          140 hlineto
          35 -206 rlineto
          -31 5 50 22 callsubr
          2 7 31 -5 hvcurveto
          -69 409 -68 307 rlineto
          24 -5 -30 -39 callsubr
          -19 -124 2 -25 -4 hvcurveto
          117 -108 rmoveto
          53 -289 101 callsubr
          endchar
        </CharString>
        <CharString name="B">
          78 -16 125 208 124 208 119 hstemhm
          45 141 168 151 -131 151 hintmask 11110100
          45 hmoveto
          -13 144 26 -3 39 hhcurveto
          210 61 105 131 80 -17 57 -46 38 hvcurveto
          hintmask 11111000
          31 40 12 63 56 vvcurveto
          145 -61 69 -210 -85 -104 -16 0 vhcurveto
          hintmask 11110100
          329 -531 rmoveto
          -86 -10 -26 -103 -59 -16 0 15 vhcurveto
          179 vlineto
          14 25 0 56 103 4 -6 -90 vhcurveto
          -170 220 rmoveto
          -12 -6 0 16 hvcurveto
          169 vlineto
          6 12 5 10 102 1 rrcurveto
          hintmask 11111000
          24 31 -35 -59 -100 -40 -14 -110 hvcurveto
          endchar
        </CharString>
        <CharString name="B_smcp">
          -62 -6 99 123 99 121 95 hstemhm
          32 110 96 115 -103 117 hintmask 11110100
          32 5 rmoveto
          -10 115 15 -1 16 hhcurveto
          147 42 73 91 55 -11 38 -27 26 hvcurveto
          hintmask 11111000
          17 30 7 37 38 vvcurveto
          102 -41 47 -147 -64 -69 -9 0 vhcurveto
          hintmask 11110100
          218 -363 rmoveto
          -50 -6 -16 -61 -33 -8 0 2 vhcurveto
          120 vlineto
          1 13 0 32 60 3 -4 -53 vhcurveto
          -104 156 rmoveto
          -3 -1 0 3 hvcurveto
          111 vlineto
          4 4 10 2 53 1 rrcurveto
          hintmask 11111000
          12 17 -20 -34 -59 -25 -8 -67 hvcurveto
          endchar
        </CharString>
        <CharString name="C">
          16 -16 124 537 -38 callgsubr
          -291 62 -96 199 41 -1 callsubr
          endchar
        </CharString>
        <CharString name="CR">
          -216 endchar
        </CharString>
        <CharString name="C_smcp">
          -102 -6 98 341 98 hstem
          25 120 vstem
          296 99 rmoveto
          -4 -41 -30 -3 -25 hhcurveto
          -48 -7 27 141 123 7 50 42 11 48 -3 -5 28 hvcurveto
          28 -5 4 12 16 44 4 16 -4 8 -4 4 rrcurveto
          23 -34 -40 4 -45 hhcurveto
          -139 -42 48 callsubr
          -200 42 -65 139 28 29 4 5 33 hvcurveto
          28 6 1 20 42 vvcurveto
          19 -8 10 -21 -1 vhcurveto
          endchar
        </CharString>
        <CharString name="Ccedilla">
          -13 5 -21 661 -38 callgsubr
          -260 49 -104 153 -19 hvcurveto
          -17 -100 -37 callsubr
          5 31 rcurveline
          42 -1 callsubr
          endchar
        </CharString>
        <CharString name="D">
          89 -16 125 540 -13 callgsubr
          272 -102 rmoveto
          51 callsubr
          hvcurveto
          502 vlineto
          23 22 0 109 vhcurveto
          endchar
        </CharString>
        <CharString name="D_smcp">
          -55 -6 99 343 95 hstem
          32 110 108 123 vstem
          32 5 rmoveto
          -9 104 27 -2 22 hhcurveto
          147 41 73 47 callsubr
          -41 48 -147 -51 -102 -10 0 hvcurveto
          189 -85 rmoveto
          18 11 -34 -142 -156 -6 -11 -61 -33 -8 0 2 hvcurveto
          335 vlineto
          6 11 0 68 vhcurveto
          endchar
        </CharString>
        <CharString name="E">
          1 0 121 213 14 callsubr
          vstem
          378 455 -98 callgsubr
        </CharString>
        <CharString name="E_smcp">
          -107 25 callgsubr
          hstem
          33 107 vstem
          261 324 -91 callgsubr
        </CharString>
        <CharString name="E_smcpacute">
          -115 25 callgsubr
          262 -20 hstem
          25 107 vstem
          182 -59 callsubr
          117 -249 -91 callgsubr
        </CharString>
        <CharString name="E_smcpcircunflex">
          -96 25 callgsubr
          90 callsubr
          hstem
          65 107 vstem
          67 572 -101 callgsubr
          265 -280 -91 callgsubr
        </CharString>
        <CharString name="E_smcpdieresis">
          -39 25 callgsubr
          118 100 callsubr
          34 144 -97 97 90 144 hintmask 11111010
          34 -88 callgsubr
          41 -388 rmoveto
          -52 callgsubr
          hintmask 11110110
          -85 callgsubr
        </CharString>
        <CharString name="E_smcpgrave">
          -130 25 callgsubr
          262 -20 hstem
          49 107 vstem
          241 -44 callgsubr
          82 -228 -91 callgsubr
        </CharString>
        <CharString name="Eacute">
          -31 9 callsubr
          29 140 vstem
          230 -44 callsubr
          178 -358 -98 callgsubr
        </CharString>
        <CharString name="Ecircumflex">
          -21 9 callsubr
          38 140 vstem
          110 -49 callsubr
          300 -405 -98 callgsubr
        </CharString>
        <CharString name="Edieresis">
          -16 0 -17 callsubr
          128 75 callsubr
          41 134 -134 151 90 30 callgsubr
          48 -88 callsubr
          92 -497 -98 callgsubr
        </CharString>
        <CharString name="Egrave">
          -32 9 callsubr
          45 140 vstem
          271 -29 callgsubr
          153 -337 -98 callgsubr
        </CharString>
        <CharString name="Eth">
          89 -16 125 225 121 194 -13 callgsubr
          229 -296 rmoveto
          -88 171 hlineto
          23 22 0 109 51 callsubr
          vhcurveto
          210 87 vlineto
          36 1 29 56 18 -6 16 -30 2 hvcurveto
          endchar
        </CharString>
        <CharString name="Euro">
          72 -16 124 88 124 90 124 111 123 hstem
          451 410 -24 callsubr
          -182 hlineto
          77 9 22 34 46 hhcurveto
          -27 callgsubr
          -159 -72 -53 -181 -22 hvcurveto
          -72 -51 callgsubr
          412 -214 -24 callsubr
          -412 -51 callgsubr
          59 hlineto
          -157 25 73 -55 152 hhcurveto
          41 -1 callsubr
          -6 -61 -47 -4 -36 hhcurveto
          -51 -24 16 72 -10 hvcurveto
          endchar
        </CharString>
        <CharString name="F">
          -43 -11 callsubr
          vstem
          45 hmoveto
          -9 60 -7 40 68 callsubr
          vhcurveto
          334 201 vlineto
          40 7 22 67 19 -9 13 -32 hvcurveto
          -209 97 callsubr
          212 50 callsubr
          -345 hlineto
          endchar
        </CharString>
        <CharString name="F_i">
          31 -11 callsubr
          142 30 callsubr
          327 hmoveto
          -9 56 -7 40 68 callsubr
          vhcurveto
          423 vlineto
          19 -9 13 -32 vhcurveto
          -239 97 callsubr
          242 50 callsubr
          -375 -752 hlineto
          -9 60 -7 40 68 callsubr
          vhcurveto
          334 142 vlineto
          endchar
        </CharString>
        <CharString name="F_iacute">
          107 -11 callsubr
          139 30 callsubr
          45 hmoveto
          19 callgsubr
          424 vlineto
          21 -54 10 -42 vhcurveto
          -181 97 callsubr
          210 hlineto
          76 callsubr
          -98 56 -14 3 -23 1 rlinecurve
          -383 hlineto
          endchar
        </CharString>
        <CharString name="F_igrave">
          13 -11 callsubr
          139 30 callsubr
          183 455 rmoveto
          -10 177 rlineto
          92 hlineto
          93 -99 68 callgsubr
          -65 135 -14 7 -34 1 rlinecurve
          -247 -752 hlineto
          19 callgsubr
          423 vlineto
          25 -46 6 -38 1 vhcurveto
          endchar
        </CharString>
        <CharString name="F_smcp">
          -143 15 -21 234 96 103 95 hstem
          33 107 vstem
          33 13 -94 callgsubr
          endchar
        </CharString>
        <CharString name="G">
          65 -16 124 537 123 hstem
          36 160 175 141 vstem
          495 322 rmoveto
          37 -3 -24 6 -39 hhcurveto
          -41 -1 -16 -6 -1 -27 rrcurveto
          -218 vlineto
          -82 -5 rlineto
          -80 -13 42 222 193 5 80 79 14 71 -7 -7 41 hvcurveto
          37 -8 5 15 21 61 8 23 -11 10 -17 9 rrcurveto
          19 -38 -53 8 -60 hhcurveto
          -199 -63 -82 -315 -291 63 -96 199 46 49 1 15 119 hvcurveto
          126 vlineto
          endchar
        </CharString>
        <CharString name="G_smcp">
          -73 -6 98 341 98 hstem
          26 121 vstem
          346 228 rmoveto
          29 -3 -17 6 -31 hhcurveto
          -34 -1 -13 -8 -1 -20 rrcurveto
          -138 vlineto
          -45 -4 rlineto
          -48 -7 27 141 123 3 50 45 10 44 -3 -4 28 hvcurveto
          32 -7 5 12 16 45 6 22 -8 9 -16 8 rrcurveto
          13 -25 -39 3 -40 hhcurveto
          -140 -42 48 callsubr
          -200 42 -65 140 33 37 1 10 79 hvcurveto
          91 vlineto
          endchar
        </CharString>
        <CharString name="H">
          51 5 -21 326 120 338 -20 hstem
          45 130 173 141 vstem
          348 734 rmoveto
          -304 -164 vlineto
          -17 303 rlineto
          29 92 callsubr
          -29 hvcurveto
          -711 vlineto
          -31 60 -16 callgsubr
          -1 289 rlineto
          164 -290 hlineto
          -29 61 -16 callgsubr
          410 vlineto
          -19 300 rlineto
          31 92 callsubr
          -28 hvcurveto
          endchar
        </CharString>
        <CharString name="H_smcp">
          -76 15 -21 218 95 224 -20 hstem
          33 102 99 109 vstem
          234 502 rmoveto
          -195 -93 vlineto
          -11 194 rlineto
          26 -1 -26 4 -31 hhcurveto
          -31 -8 -4 -26 hvcurveto
          -473 vlineto
          -27 42 -7 32 35 0 7 26 vhcurveto
          -1 185 rlineto
          93 -186 hlineto
          -25 44 -7 31 34 0 7 26 vhcurveto
          273 vlineto
          -11 200 rlineto
          25 -2 -26 6 -30 hhcurveto
          -33 -7 -4 -25 hvcurveto
          endchar
        </CharString>
        <CharString name="I">
          -157 2 callgsubr
          hstem
          95 140 vstem
          59 121 -96 callsubr
        </CharString>
        <CharString name="I_smcp">
          -214 40 callsubr
          hstemhm
          21 -14 callsubr
          hintmask 11100000
          48 -19 callsubr
          hintmask 11010000
          -57 callgsubr
          hintmask 11100000
          -81 callsubr
          hintmask 11010000
          10 callsubr
          endchar
        </CharString>
        <CharString name="I_smcpacute">
          -214 44 callgsubr
          21 -14 callsubr
          hintmask 11110000
          125 -59 callsubr
          -31 -472 -84 callgsubr
        </CharString>
        <CharString name="I_smcpcircunflex">
          -140 44 callgsubr
          93 -14 callsubr
          hintmask 11110000
          57 -49 callgsubr
          102 -519 -84 callgsubr
        </CharString>
        <CharString name="I_smcpdieresis">
          -98 40 callsubr
          118 100 callsubr
          -18 144 -54 -14 callsubr
          -5 144 hintmask 11110010
          -18 -88 callgsubr
          -117 -611 rmoveto
          hintmask 11101000
          -105 callgsubr
          hintmask 11100100
          -57 callgsubr
          hintmask 11101000
          -81 callsubr
          hintmask 11100100
          10 callsubr
          endchar
        </CharString>
        <CharString name="I_smcpgrave">
          -208 44 callgsubr
          69 -14 callsubr
          hintmask 11110000
          191 -44 callgsubr
          -49 -451 -84 callgsubr
        </CharString>
        <CharString name="Iacute">
          -147 8 callsubr
          73 140 vstem
          156 -44 callsubr
          -73 -692 -96 callsubr
        </CharString>
        <CharString name="Icircumflex">
          -106 8 callsubr
          122 140 vstem
          62 -49 callsubr
          63 -739 -96 callsubr
        </CharString>
        <CharString name="Idieresis">
          -61 2 callgsubr
          128 100 callsubr
          21 144 1 140 -51 144 hintmask 11110100
          21 -88 callsubr
          -125 -831 -76 callsubr
          hintmask 11111000
          -87 callsubr
        </CharString>
        <CharString name="Igrave">
          -147 8 callsubr
          127 140 vstem
          225 -29 callgsubr
          -88 -671 -96 callsubr
        </CharString>
        <CharString name="J">
          -193 -224 111 881 -20 hstemhm
          0 247 -141 141 hintmask 11100000
          -167 vmoveto
          1 -41 7 -15 24 -1 rrcurveto
          188 27 114 275 hvcurveto
          267 vlineto
          -16 299 rlineto
          30 -1 -32 -35 callsubr
          -11 -7 -29 hvcurveto
          hintmask 11010000
          -1 -569 rlineto
          -201 -13 -75 -61 vhcurveto
          hintmask 11100000
          -23 -9 -14 -40 hvcurveto
          endchar
        </CharString>
        <CharString name="J_smcp">
          -239 -144 90 585 -20 hstemhm
          0 182 -110 110 hintmask 11100000
          -99 vmoveto
          -33 7 -11 22 -1 vhcurveto
          132 21 78 189 hvcurveto
          178 94 callsubr
          26 -1 -26 5 -31 hhcurveto
          hintmask 11010000
          -31 -10 -5 -25 hvcurveto
          -379 vlineto
          -129 -7 -47 -36 vhcurveto
          hintmask 11100000
          -21 -8 -12 -33 hvcurveto
          endchar
        </CharString>
        <CharString name="K">
          101 66 callsubr
          140 vstem
          387 21 rmoveto
          -30 14 77 54 callgsubr
          30 -14 hvcurveto
          -191 396 151 315 rlineto
          29 14 -39 -35 callsubr
          -29 -7 -29 -12 hvcurveto
          -150 -316 rlineto
          -30 vlineto
          -167 -366 rmoveto
          -29 61 64 callsubr
          -1 410 -15 298 rlineto
          31 -1 -32 -35 callsubr
          -12 -7 -30 hvcurveto
          endchar
        </CharString>
        <CharString name="K_smcp">
          -7 45 callsubr
          vstem
          259 23 rmoveto
          -23 12 56 -6 95 callgsubr
          -126 259 99 207 rlineto
          27 12 -30 7 -32 hhcurveto
          -30 -24 -7 -19 -7 hvcurveto
          -100 -211 rlineto
          -29 vlineto
          -112 -239 rmoveto
          -25 44 -45 callgsubr
          -1 273 -10 198 rlineto
          27 -26 5 -31 -32 -10 -5 -26 vhcurveto
          endchar
        </CharString>
        <CharString name="L">
          -47 69 callsubr
          647 -20 hstem
          45 139 vstem
          61 37 callsubr
          311 -15 300 63 callsubr
          -715 vlineto
          endchar
        </CharString>
        <CharString name="L_smcp">
          -147 5 96 430 -20 hstem
          33 106 vstem
          45 5 -13 callsubr
        </CharString>
        <CharString name="Lslash">
          60 69 callsubr
          647 -20 hstem
          146 131 vstem
          162 37 callsubr
          202 121 33 12 20 -23 88 -20 12 -91 -25 -14 281 63 callsubr
          -317 vlineto
          -128 -34 32 -120 96 26 rlineto
          -270 vlineto
          endchar
        </CharString>
        <CharString name="M">
          115 66 callsubr
          140 227 141 vstem
          412 21 rmoveto
          -34 48 -3 53 -64 callgsubr
          37 vhcurveto
          403 vlineto
          -16 298 rlineto
          32 -1 -32 -35 callsubr
          -9 -7 -29 -11 hvcurveto
          -106 -259 -101 258 rlineto
          30 -11 -29 -35 callsubr
          -32 -7 -31 hvcurveto
          -709 vlineto
          -30 53 callgsubr
          451 vlineto
          61 -119 rlineto
          101 hlineto
          65 121 rlineto
          endchar
        </CharString>
        <CharString name="M_smcp">
          -36 45 callsubr
          135 110 vstem
          276 27 rmoveto
          -31 36 -2 39 35 0 7 31 vhcurveto
          268 94 callsubr
          27 -1 -26 5 -29 hhcurveto
          -33 -6 -3 -23 -10 hvcurveto
          -62 -156 -58 153 rlineto
          24 -10 -22 5 -31 hhcurveto
          -30 -25 -5 -27 hvcurveto
          -472 vlineto
          -26 43 -45 callgsubr
          266 vlineto
          26 -54 rlineto
          81 hlineto
          28 57 rlineto
          endchar
        </CharString>
        <CharString name="N">
          61 66 callsubr
          139 177 138 vstem
          45 24 -50 callsubr
        </CharString>
        <CharString name="N_smcp">
          -70 45 callsubr
          100 108 vstem
          32 29 rmoveto
          -28 43 -45 callgsubr
          234 vlineto
          27 callsubr
          -11 201 rlineto
          25 -1 -8 5 -33 hhcurveto
          -31 -26 -5 -25 hvcurveto
          4 -239 -98 232 rlineto
          37 -22 -18 0 -18 hhcurveto
          -31 -24 -5 -26 hvcurveto
          endchar
        </CharString>
        <CharString name="Ntilde">
          45 2 callsubr
          116 29 callsubr
          37 139 177 138 hintmask 11101100
          146 864 -82 callgsubr
          -109 -840 -50 callsubr
        </CharString>
        <CharString name="Ntilde_smcp">
          -59 15 -21 586 97 hstemhm
          30 108 101 107 vstemhm
          110 580 rmoveto
          72 55 22 -8 70 hvcurveto
          13 35 rlineto
          42 -26 6 -31 vhcurveto
          hintmask 11110000
          -65 -62 -13 -63 hhcurveto
          -19 -38 rlineto
          -40 12 -6 44 vhcurveto
          -80 -551 rmoveto
          -28 43 -45 callgsubr
          -1 234 27 callsubr
          -10 201 rlineto
          25 -9 5 -33 -32 -24 -5 -25 vhcurveto
          3 -239 -99 233 rlineto
          36 -22 -18 0 -17 hhcurveto
          -32 -23 -5 -26 hvcurveto
          endchar
        </CharString>
        <CharString name="O">
          115 26 callsubr
          hstem
          37 34 callgsubr
          vstem
          37 -102 callsubr
          endchar
        </CharString>
        <CharString name="OE">
          331 -16 112 -96 96 -96 -17 callsubr
          -90 90 hstemhm
          37 159 208 155 hintmask 10011011
          37 -30 callsubr
          vhcurveto
          hintmask 01011011
          52 42 7 9 40 hvcurveto
          352 hlineto
          38 7 24 62 hvcurveto
          hintmask 00111011
          22 -9 12 -33 1 vhcurveto
          -258 hlineto
          18 52 9 70 2 91 rrcurveto
          194 -28 callsubr
          -192 hlineto
          -4 76 -9 58 -16 43 rrcurveto
          240 -47 callsubr
          -473 hlineto
          -199 -63 -66 -315 hvcurveto
          159 1 rmoveto
          hintmask 10010111
          -86 callgsubr
          endchar
        </CharString>
        <CharString name="OE_smcp">
          118 -6 90 -90 107 37 callgsubr
          94 -76 76 1 -20 hstemhm
          34 122 122 118 hintmask 01110011
          34 259 rmoveto
          -200 43 -65 139 33 28 4 8 23 vhcurveto
          1 -1 -54 callgsubr
          hlineto
          1 127 rlineto
          122 -28 callgsubr
          -48 callgsubr
          hvcurveto
          hintmask 10100111
          91 callgsubr
          -29 1 vhcurveto
          hintmask 10101011
          -316 -1 rlineto
          -139 -43 83 callsubr
          hvcurveto
          122 1 rmoveto
          162 5 23 93 -59 callgsubr
          endchar
        </CharString>
        <CharString name="O_smcp">
          -41 39 callsubr
          hstem
          26 33 callsubr
          vstem
          26 259 -95 callsubr
        </CharString>
        <CharString name="O_smcpacute">
          31 callgsubr
          205 -59 callsubr
          -133 -314 -95 callsubr
        </CharString>
        <CharString name="O_smcpcircunflex">
          -53 39 callsubr
          253 -20 hstem
          38 33 callsubr
          vstem
          96 -49 callgsubr
          -19 -361 -95 callsubr
        </CharString>
        <CharString name="O_smcpdieresis">
          -26 39 callsubr
          109 100 callsubr
          44 122 -122 142 90 132 -120 120 -120 132 hintmask 11101100
          42 712 rmoveto
          -106 callgsubr
          -54 callsubr
          vhcurveto
          hintmask 11110001
          40 32 16 56 56 -32 16 -40 hvcurveto
          hintmask 11110100
          -40 -32 -16 -56 hvcurveto
          -232 -453 -93 callgsubr
          5 23 93 vhcurveto
          hintmask 11110010
          -67 callsubr
          hvcurveto
          endchar
        </CharString>
        <CharString name="O_smcpgrave">
          31 callgsubr
          276 -44 callgsubr
          -204 -293 -95 callsubr
        </CharString>
        <CharString name="O_smcptilde">
          -46 39 callsubr
          93 29 callsubr
          33 33 callsubr
          hintmask 11101100
          114 624 rmoveto
          hintmask 11011100
          122 -14 -70 callsubr
          hintmask 11101100
          -141 45 -65 callsubr
          -81 -365 -95 callsubr
        </CharString>
        <CharString name="Oacute">
          95 26 callsubr
          18 callsubr
          23 34 callgsubr
          vstem
          23 -102 callsubr
          121 420 -78 callgsubr
        </CharString>
        <CharString name="Ocircumflex">
          101 26 callsubr
          18 callsubr
          30 34 callgsubr
          vstem
          30 -102 callsubr
          -23 456 -80 callgsubr
        </CharString>
        <CharString name="Odieresis">
          104 26 callsubr
          36 callsubr
          hstemhm
          31 159 -87 39 callgsubr
          -83 156 hintmask 11110010
          31 -102 callsubr
          hintmask 11101100
          -87 580 -106 callsubr
          endchar
        </CharString>
        <CharString name="Ograve">
          95 26 callsubr
          18 callsubr
          31 34 callgsubr
          vstem
          31 -102 callsubr
          123 441 -78 callsubr
        </CharString>
        <CharString name="Oslash">
          96 -146 245 -115 115 547 110 -110 230 -121 -20 hstemhm
          27 162 203 69 -69 159 hintmask 10100110
          27 76 callgsubr
          -201 29 -108 85 -48 vhcurveto
          -32 -128 rlineto
          -32 136 vlineto
          hintmask 01100101
          30 130 rlineto
          14 hlineto
          201 61 96 291 206 -26 101 -75 46 hvcurveto
          hintmask 10010110
          11 45 rlineto
          107 -105 vlineto
          hintmask 10001110
          -30 -121 rlineto
          hintmask 10100110
          -12 -12 89 callgsubr
          -200 -62 -70 -315 hvcurveto
          162 1 rmoveto
          247 9 27 147 32 15 -45 -229 -256 -11 -17 -146 -30 -16 43 230 vhcurveto
          endchar
        </CharString>
        <CharString name="Otilde">
          101 26 callsubr
          96 29 callsubr
          30 34 callgsubr
          hintmask 11101100
          30 -102 callsubr
          -15 492 -82 callgsubr
          endchar
        </CharString>
        <CharString name="P">
          -5 62 callsubr
          125 152 30 callgsubr
          45 22 rmoveto
          -31 45 -7 40 -64 callgsubr
          32 vhcurveto
          261 vlineto
          141 155 11 237 155 -54 81 -189 -77 -101 -16 0 hvcurveto
          142 -331 rmoveto
          -11 61 callgsubr
          -47 -69 -110 -36 -2 -99 vhcurveto
          endchar
        </CharString>
        <CharString name="P_smcp">
          -120 15 -21 200 107 135 95 hstem
          33 99 85 112 vstem
          33 28 rmoveto
          -27 32 -7 31 36 0 7 27 vhcurveto
          166 vlineto
          94 103 13 160 109 -39 55 -132 -59 -66 -9 0 hvcurveto
          102 64 callgsubr
          6 0 53 11 15 -26 -43 -65 -23 -1 -59 vhcurveto
          endchar
        </CharString>
        <CharString name="Q">
          107 -187 111 -89 109 40 112 566 106 hstemhm
          32 159 -80 80 208 156 hintmask 10111010
          32 -102 callsubr
          255 -559 rmoveto
          50 17 11 43 1 hvcurveto
          -25 57 rlineto
          hintmask 01110110
          1 -110 -98 19 -100 hhcurveto
          -38 -31 -9 -51 -1 hvcurveto
          16 -49 rlineto
          hintmask 10111010
          111 103 -22 105 hhcurveto
          endchar
        </CharString>
        <CharString name="Q_smcp">
          -46 -136 89 -74 88 27 90 361 86 hstemhm
          23 122 -70 70 122 120 hintmask 10111010
          23 259 -93 callgsubr
          6 23 92 -59 callgsubr
          162 -396 rmoveto
          38 13 9 37 1 hvcurveto
          -17 43 rlineto
          hintmask 01110110
          1 -76 -68 13 -68 hhcurveto
          -29 -25 -8 -41 -1 hvcurveto
          13 -39 rlineto
          hintmask 10111010
          -1 78 70 -14 71 hhcurveto
          endchar
        </CharString>
        <CharString name="R">
          50 62 callsubr
          126 152 30 callgsubr
          45 24 rmoveto
          -33 46 -7 40 -64 callgsubr
          35 vhcurveto
          258 vlineto
          25 25 0 2 25 hvcurveto
          114 -264 rlineto
          -31 14 60 54 callgsubr
          44 -19 hvcurveto
          -126 285 rlineto
          57 34 37 73 117 vvcurveto
          155 -55 69 -190 -75 -102 -16 0 vhcurveto
          142 -331 rmoveto
          -10 61 callgsubr
          -35 -69 -110 -36 -14 -100 vhcurveto
          endchar
        </CharString>
        <CharString name="R_smcp">
          -69 15 -21 442 95 hstem
          32 100 85 112 vstem
          32 29 rmoveto
          -28 34 -7 31 35 0 7 29 vhcurveto
          164 vlineto
          14 8 0 1 13 hvcurveto
          74 -171 rlineto
          -25 11 45 -5 29 hhcurveto
          22 10 4 13 6 -4 12 -87 195 hvcurveto
          36 26 26 51 74 vvcurveto
          109 -39 47 -133 -57 -68 -9 0 vhcurveto
          103 64 callgsubr
          7 0 52 11 15 -20 -41 -65 -22 -9 -60 vhcurveto
          endchar
        </CharString>
        <CharString name="S">
          40 -16 126 547 111 87 callgsubr
          52 151 -68 callgsubr
        </CharString>
        <CharString name="S_smcp">
          -93 -6 100 348 89 hstem
          27 113 86 117 vstem
          18 87 rmoveto
          -65 128 -28 51 108 38 70 101 77 -46 33 -63 34 vhcurveto
          -60 28 -34 24 33 vvcurveto
          34 20 14 19 11 29 -7 -7 22 vhcurveto
          36 -13 11 6 18 48 rrcurveto
          51 12 -99 11 -32 hhcurveto
          -103 -57 -41 -109 -64 63 -61 50 -26 hvcurveto
          53 -28 33 -20 -30 vvcurveto
          -30 -6 -28 -45 -25 -28 13 24 -32 vhcurveto
          -10 7 -8 3 -7 -1 rrcurveto
          -20 -2 -27 -32 -19 vvcurveto
          endchar
        </CharString>
        <CharString name="Scaron">
          34 -16 126 547 111 265 -20 87 callgsubr
          93 1001 -43 callsubr
          -80 -882 -68 callgsubr
        </CharString>
        <CharString name="T">
          -12 5 -21 648 120 hstem
          172 140 vstem
          172 -24 callgsubr
          112 -1 rlineto
          6 callsubr
          -364 -25 callgsubr
          endchar
        </CharString>
        <CharString name="T_i">
          146 -12 callgsubr
          237 -1 rlineto
          6 callsubr
          -26 callgsubr
        </CharString>
        <CharString name="T_iacute">
          219 -12 callgsubr
          184 -1 76 callsubr
          rlineto
          56 -98 -14 4 -25 hhcurveto
          -26 callgsubr
        </CharString>
        <CharString name="T_igrave">
          123 6 callgsubr
          hstem
          176 140 115 -18 callsubr
          65 -1 92 -99 68 callgsubr
          rlineto
          132 -58 -13 11 -41 hhcurveto
          -354 -25 callgsubr
          255 -632 -97 callgsubr
        </CharString>
        <CharString name="T_smcp">
          -120 15 -21 433 95 hstemhm
          115 110 vstemhm
          115 27 rmoveto
          -85 callsubr
          hintmask 11100000
          -71 callsubr
        </CharString>
        <CharString name="Thorn">
          -31 -16 211 -96 96 336 96 144 -20 hstemhm
          46 133 36 callsubr
          hintmask 10111100
          46 hmoveto
          -9 57 -7 40 40 -4 7 9 vhcurveto
          110 vlineto
          hintmask 01111100
          -4 31 47 -7 35 hhcurveto
          24 callgsubr
          -48 128 hlineto
          9 -53 -90 callsubr
          133 -224 rmoveto
          43 callgsubr
        </CharString>
        <CharString name="U">
          68 35 callgsubr
          hstemhm
          41 -12 callsubr
          hintmask 11010100
          367 722 -36 callgsubr
          hintmask 11100100
          -77 callsubr
          hintmask 11101000
          -37 callgsubr
        </CharString>
        <CharString name="U_smcp">
          -70 -6 99 438 -20 hstem
          29 54 callsubr
          245 494 -100 callsubr
        </CharString>
        <CharString name="U_smcpacute">
          -94 81 callsubr
          26 54 callsubr
          189 -59 callsubr
          99 -79 -100 callsubr
        </CharString>
        <CharString name="U_smcpcircunflex">
          -77 81 callsubr
          42 54 callsubr
          80 -49 callgsubr
          217 -126 -100 callsubr
        </CharString>
        <CharString name="U_smcpdieresis">
          -35 -6 99 547 100 callsubr
          34 146 -114 114 88 144 -130 110 hintmask 11101000
          34 -88 callgsubr
          hintmask 11010100
          14 -218 -100 callsubr
        </CharString>
        <CharString name="U_smcpgrave">
          -94 81 callsubr
          36 54 callsubr
          242 -44 callgsubr
          56 -58 -100 callsubr
        </CharString>
        <CharString name="Uacute">
          46 35 callgsubr
          276 -20 hstemhm
          26 -12 callsubr
          hintmask 11101100
          278 -44 callsubr
          120 -91 -82 callsubr
        </CharString>
        <CharString name="Ucircumflex">
          54 11 callsubr
          142 -49 callsubr
          255 -138 -82 callsubr
        </CharString>
        <CharString name="Udieresis">
          57 35 callgsubr
          132 100 callsubr
          32 133 -133 147 -99 39 callgsubr
          -100 130 -130 142 hintmask 1110011000000000
          80 -88 callsubr
          hintmask 1110100100000000
          44 -230 -36 callgsubr
          hintmask 1111000010000000
          -77 callsubr
          hintmask 1111000100000000
          -37 callgsubr
        </CharString>
        <CharString name="Ugrave">
          47 11 callsubr
          297 -29 callgsubr
          107 -70 -82 callsubr
        </CharString>
        <CharString name="V">
          94 7 callsubr
          -20 callgsubr
          168 708 rlineto
          32 8 -34 7 -40 hhcurveto
          26 callgsubr
          -120 -538 -136 533 rlineto
          1 callgsubr
          endchar
        </CharString>
        <CharString name="V_i">
          250 0 callsubr
          551 20 callsubr
          109 -1 rlineto
          6 callsubr
          -2 callgsubr
          526 -731 -97 callgsubr
        </CharString>
        <CharString name="V_iacute">
          343 0 callsubr
          553 20 callsubr
          79 -1 rlineto
          -1 vlineto
          -8 -19 67 callgsubr
          148 159 rlineto
          54 -133 -13 3 -21 hhcurveto
          -2 callgsubr
          528 -731 -97 callgsubr
        </CharString>
        <CharString name="V_igrave">
          243 46 callgsubr
          550 30 callsubr
          -20 callgsubr
          138 579 2 -3 60 -64 77 callgsubr
          -41 hhcurveto
          -38 3 callsubr
          1 callgsubr
          525 -731 -97 callgsubr
        </CharString>
        <CharString name="V_smcp">
          -56 16 callgsubr
          149 26 rmoveto
          -24 7 31 -8 50 hhcurveto
          25 5 9 22 6 hvcurveto
          113 472 rlineto
          27 5 -26 7 -30 hhcurveto
          -30 -14 -7 -21 -6 hvcurveto
          -71 -326 -83 322 rlineto
          25 -8 -21 7 -30 hhcurveto
          -32 -27 -5 -28 7 hvcurveto
          endchar
        </CharString>
        <CharString name="W">
          466 7 callsubr
          229 20 rmoveto
          -63 callsubr
          167 711 rlineto
          37 5 -18 0 -54 hhcurveto
          73 callsubr
          -30 -7 hvcurveto
          -119 -537 -72 callsubr
          endchar
        </CharString>
        <CharString name="W_i">
          611 0 callsubr
          911 -64 callsubr
          108 hlineto
          6 callsubr
          -146 -6 callsubr
        </CharString>
        <CharString name="W_iacute">
          705 0 callsubr
          914 -64 callsubr
          76 -1 hlineto
          -8 -19 67 callgsubr
          144 159 rlineto
          53 -122 -14 4 -25 hhcurveto
          86 callsubr
          130 -713 -97 callgsubr
        </CharString>
        <CharString name="W_igrave">
          606 46 callgsubr
          911 30 callsubr
          -89 callsubr
          137 576 60 -63 77 callgsubr
          -40 hhcurveto
          -37 -6 callsubr
        </CharString>
        <CharString name="W_smcp">
          188 16 callgsubr
          156 24 rmoveto
          -22 9 48 -8 28 hhcurveto
          22 11 7 25 6 hvcurveto
          52 207 63 -209 rlineto
          -23 7 49 -7 30 hhcurveto
          19 11 9 21 6 hvcurveto
          112 473 rlineto
          34 5 -14 0 -43 hhcurveto
          -31 -12 -4 -25 -7 hvcurveto
          -71 -322 -63 250 rlineto
          26 -9 -33 8 -28 hhcurveto
          -29 -14 -7 -22 -5 hvcurveto
          -57 -256 -82 323 rlineto
          22 -7 -19 7 -31 hhcurveto
          -33 -26 -5 -26 5 hvcurveto
          endchar
        </CharString>
        <CharString name="X">
          116 7 callsubr
          77 731 rmoveto
          149 -316 -189 -394 rlineto
          -30 -14 84 -21 callgsubr
          26 10 7 31 12 hvcurveto
          104 260 103 -260 rlineto
          -31 12 78 54 callgsubr
          30 -14 hvcurveto
          -190 393 149 313 rlineto
          34 16 -36 -35 callsubr
          -33 -7 -30 -10 hvcurveto
          -79 -209 -79 209 rlineto
          30 -10 -31 -35 callsubr
          -34 -7 -30 12 hvcurveto
          endchar
        </CharString>
        <CharString name="X_smcp">
          -21 16 callgsubr
          56 89 callsubr
          97 -207 -124 -258 rlineto
          -30 -13 63 -7 31 hhcurveto
          22 9 7 25 10 hvcurveto
          61 152 60 -153 rlineto
          -24 11 56 -7 95 callgsubr
          -125 257 98 205 rlineto
          33 14 -28 5 -33 hhcurveto
          -29 -25 -6 -19 -9 hvcurveto
          -46 -123 -45 119 rlineto
          22 -9 -22 7 -30 hhcurveto
          -34 -27 -5 -29 12 hvcurveto
          endchar
        </CharString>
        <CharString name="Y">
          93 7 callsubr
          243 117 vstem
          243 22 rmoveto
          -31 callgsubr
          195 382 -5 callgsubr
          -119 -242 96 callgsubr
          -42 callgsubr
          endchar
        </CharString>
        <CharString name="Y_i">
          256 12 callgsubr
          139 hlineto
          6 callsubr
          -151 hlineto
          78 callgsubr
          -114 -226 96 callgsubr
          hintmask 11011100
          -42 callgsubr
          -327 vlineto
          -31 callgsubr
          hintmask 11101100
          199 -349 -97 callgsubr
        </CharString>
        <CharString name="Y_iacute">
          346 12 callgsubr
          112 hlineto
          -2 -4 -11 -19 92 callgsubr
          rlineto
          57 -126 -13 3 -21 hhcurveto
          -151 hlineto
          78 callgsubr
          -114 -226 96 callgsubr
          hintmask 11011100
          -42 callgsubr
          -327 vlineto
          -31 callgsubr
          hintmask 11101100
          199 -349 -97 callgsubr
        </CharString>
        <CharString name="Y_igrave">
          250 -40 callgsubr
          260 -20 36 -20 hstemhm
          243 117 197 136 hintmask 11101100
          589 533 rmoveto
          68 callgsubr
          rlineto
          132 -57 -13 11 -41 hhcurveto
          -40 hlineto
          78 callgsubr
          -114 -226 96 callgsubr
          hintmask 11011100
          36 -15 -54 89 callgsubr
          hintmask 11101100
          -40 -37 -7 -29 16 hvcurveto
          218 -383 rlineto
          -327 vlineto
          -31 callgsubr
          143 275 rlineto
          54 -624 -97 callgsubr
        </CharString>
        <CharString name="Y_smcp">
          -52 16 callgsubr
          166 94 vstem
          166 28 -75 callgsubr
        </CharString>
        <CharString name="Y_smcpacute">
          -69 15 -21 790 -20 hstem
          166 94 vstem
          206 -59 callsubr
          6 -545 -75 callgsubr
        </CharString>
        <CharString name="Y_smcpdieresis">
          -50 15 -21 646 100 callsubr
          31 144 4 94 -8 144 hintmask 11101000
          31 -88 callgsubr
          hintmask 11110000
          -86 -684 -75 callgsubr
        </CharString>
        <CharString name="Yacute">
          80 2 callsubr
          276 -20 hstem
          236 117 vstem
          297 -44 callsubr
          -15 -791 rmoveto
          -31 callgsubr
          195 382 -5 callgsubr
          -119 -242 96 callgsubr
          -42 callgsubr
          endchar
        </CharString>
        <CharString name="Ydieresis">
          85 5 -21 784 98 callsubr
          hstemhm
          104 144 -12 117 -15 144 hintmask 11110100
          104 -88 callsubr
          hintmask 11101000
          -102 -930 rmoveto
          -31 callgsubr
          195 382 -5 callgsubr
          -119 -242 96 callgsubr
          -42 callgsubr
          endchar
        </CharString>
        <CharString name="Z">
          48 2 callgsubr
          hstem
          445 121 -39 callgsubr
        </CharString>
        <CharString name="Z_smcp">
          -94 40 callsubr
          hstem
          307 101 rmoveto
          -146 hlineto
          179 338 rlineto
          68 vlineto
          -13 15 rlineto
          -273 hlineto
          -26 -6 -18 -33 hvcurveto
          -34 1 3 -10 31 hhcurveto
          158 hlineto
          -183 -331 rlineto
          -76 vlineto
          13 -15 rlineto
          265 hlineto
          36 4 37 29 1 hvcurveto
          91 callgsubr
          -36 1 vhcurveto
          endchar
        </CharString>
        <CharString name="Zcaron">
          21 8 callsubr
          91 992 -42 callsubr
          -81 -125 81 rlineto
          307 -903 -39 callgsubr
        </CharString>
        <CharString name="a">
          -47 17 callsubr
          -103 callsubr
          endchar
        </CharString>
        <CharString name="aacute">
          -99 callgsubr
          -38 302 -78 callgsubr
        </CharString>
        <CharString name="acircumflex">
          -99 callgsubr
          -166 338 -80 callgsubr
        </CharString>
        <CharString name="acute">
          85 callgsubr
          74 -5 callsubr
          endchar
        </CharString>
        <CharString name="adieresis">
          -47 17 callsubr
          36 callsubr
          hstemhm
          35 111 -111 138 84 137 -137 150 hintmask 11110100
          -107 callgsubr
          -229 462 rmoveto
          -74 callgsubr
          vhcurveto
          hintmask 11101010
          -6 callgsubr
        </CharString>
        <CharString name="ae">
          200 29 callgsubr
          108 101 hstem
          39 111 111 145 101 133 vstem
          634 -98 callsubr
          -55 -41 -7 -21 -29 hvcurveto
          21 -32 -45 7 -62 hhcurveto
          -80 -45 -34 0 hvcurveto
          24 -80 rlineto
          40 hlineto
          -92 callgsubr
          48 16 18 47 47 vhcurveto
          -47 29 49 -18 75 hhcurveto
          17 callgsubr
          -372 234 -76 callgsubr
          144 147 50 callgsubr
        </CharString>
        <CharString name="agrave">
          -99 callgsubr
          -21 323 -78 callsubr
        </CharString>
        <CharString name="ampersand">
          295 61 callsubr
          224 98 124 101 104 101 hstem
          22 136 282 143 vstem
          711 411 rmoveto
          41 7 30 40 15 -8 16 -40 hvcurveto
          -481 84 callsubr
          -200 48 -64 162 49 34 7 7 24 vhcurveto
          13 4 2 16 46 vvcurveto
          32 -11 -1 -6 -1 vhcurveto
          -4 -27 -35 -8 -47 hhcurveto
          -48 -18 23 101 -4 hvcurveto
          149 hlineto
          22 -1 48 24 30 -16 -1 -8 hvcurveto
          -145 hlineto
          74 3 14 30 44 hhcurveto
          221 hlineto
          -1 -619 rlineto
          -16 vlineto
          -8 callgsubr
          1 vlineto
          -1 634 rlineto
          endchar
        </CharString>
        <CharString name="aring">
          -47 17 callsubr
          48 102 callgsubr
          hstemhm
          35 111 -25 61 75 56 -56 137 hintmask 11111001
          -107 callgsubr
          hintmask 11110110
          -137 422 -72 callgsubr
          endchar
        </CharString>
        <CharString name="asciicircum">
          -105 545 -21 228 -20 hstem
          353 556 rmoveto
          -13 54 -102 122 -49 20 -49 -20 -102 -122 -13 -54 39 -32 125 113 125 -113 rlineto
          endchar
        </CharString>
        <CharString name="asciitilde">
          22 298 29 callsubr
          hintmask 10000000
          106 298 rmoveto
          hintmask 01000000
          122 80 -70 callsubr
          hintmask 10000000
          -141 -49 -65 callsubr
          endchar
        </CharString>
        <CharString name="asterisk">
          -24 192 -21 397 -20 hstem
          168 124 vstem
          104 514 rmoveto
          -23 -6 -56 -92 81 -47 -71 -40 -2 -15 56 -97 79 46 rlineto
          -76 8 callgsubr
          108 91 hlineto
          69 -39 15 2 57 99 -80 46 65 37 6 23 -55 91 -77 -45 rlineto
          75 vlineto
          -17 17 rlineto
          -107 -91 hlineto
          endchar
        </CharString>
        <CharString name="at">
          117 -37 127 168 224 127 126 hstem
          37 167 vstem
          298 370 rmoveto
          -74 43 -38 53 vhcurveto
          167 60 hlineto
          298 -32 116 -223 3 vhcurveto
          -214 -55 -70 -315 -291 62 -96 200 91 143 61 3 26 hvcurveto
          126 vlineto
          -2 -29 -146 -61 -90 hhcurveto
          -77 -13 42 219 108 -16 150 116 66 15 -78 -49 4 hvcurveto
          -51 -2 -40 -38 -72 vvcurveto
          endchar
        </CharString>
        <CharString name="atilde">
          -47 17 callsubr
          96 29 callsubr
          35 111 111 137 hintmask 11101100
          -107 callgsubr
          -157 374 -82 callgsubr
          endchar
        </CharString>
        <CharString name="b">
          77 callsubr
          45 134 36 callsubr
          -1 callgsubr
          -768 vlineto
          75 27 16 0 0 88 -16 57 24 callgsubr
          -48 hlineto
          -96 vmoveto
          43 callgsubr
        </CharString>
        <CharString name="backslash">
          -110 65 callgsubr
          117 876 rmoveto
          -105 -107 hlineto
          216 -915 rlineto
          136 32 hlineto
          endchar
        </CharString>
        <CharString name="bar">
          -258 70 callgsubr
          1051 -20 hstem
          46 30 callsubr
          42 28 callsubr
          578 hlineto
          -16 457 98 callgsubr
          endchar
        </CharString>
        <CharString name="braceleft">
          -56 86 callgsubr
          102 133 vstem
          215 781 rmoveto
          181 -15 callgsubr
          -276 hlineto
          -3 -404 -82 -117 80 -115 -3 -399 -57 callsubr
          276 -15 callgsubr
          -136 hlineto
          -2 281 -98 125 97 125 rlineto
          endchar
        </CharString>
        <CharString name="braceright">
          -57 86 callgsubr
          191 124 -124 137 vstem
          193 509 rmoveto
          97 -125 -98 -125 -2 -281 rlineto
          -152 -107 hlineto
          17 -17 rlineto
          275 hlineto
          -3 415 80 115 -82 117 -19 388 -51 callsubr
          -260 -51 callgsubr
          149 hlineto
          endchar
        </CharString>
        <CharString name="bracketleft">
          -113 88 callgsubr
          47 134 vstem
          319 -140 rmoveto
          53 callsubr
          -137 hlineto
          -2 447 -18 350 rlineto
          165 hlineto
          53 callsubr
          -260 hlineto
          -16 -16 -8 -1013 -57 callsubr
          endchar
        </CharString>
        <CharString name="bracketright">
          -114 88 callgsubr
          189 124 -124 30 callsubr
          311 -140 rmoveto
          16 16 -4 555 -20 458 -51 callsubr
          -244 hlineto
          -16 -16 rlineto
          -92 8 callgsubr
          149 hlineto
          -5 -797 rlineto
          -136 hlineto
          -16 -16 rlineto
          -92 8 callgsubr
          endchar
        </CharString>
        <CharString name="breve">
          -177 599 75 -75 121 1 -20 hstemhm
          34 239 hintmask 10110000
          196 721 rmoveto
          -25 2 -11 -22 -35 hhcurveto
          hintmask 01010000
          -33 2 -12 21 1 23 -74 -2 rcurveline
          -65 -1 27 -54 93 hhcurveto
          91 -1 26 56 3 65 rrcurveto
          endchar
        </CharString>
        <CharString name="brokenbar">
          -263 70 callgsubr
          1051 -20 83 callgsubr
          vstem
          45 28 callsubr
          425 -30 callgsubr
          -124 hlineto
          124 610 rmoveto
          -124 -407 hlineto
          41 callsubr
          407 hlineto
          endchar
        </CharString>
        <CharString name="bullet">
          -220 199 192 hstem
          35 192 vstem
          35 295 -45 callsubr
          endchar
        </CharString>
        <CharString name="c">
          -71 17 callsubr
          hstem
          36 30 callsubr
          371 478 rmoveto
          31 callsubr
          -9 callgsubr
          162 59 36 9 7 27 hvcurveto
          -40 callsubr
        </CharString>
        <CharString name="caron">
          -105 586 -21 196 -20 hstem
          25 729 -43 callsubr
          endchar
        </CharString>
        <CharString name="ccedilla">
          -102 17 callsubr
          hstem
          17 30 callsubr
          352 478 rmoveto
          31 callsubr
          47 callgsubr
          -177 37 -72 121 -14 hvcurveto
          -17 -99 -37 callsubr
          5 31 rcurveline
          55 1 35 8 26 7 -40 callsubr
        </CharString>
        <CharString name="cedilla">
          -262 9 -20 hstem
          24 -112 rmoveto
          -37 callsubr
          8 46 rcurveline
          -57 10 rlineto
          endchar
        </CharString>
        <CharString name="cent">
          -103 -1 214 329 226 hstemhm
          36 136 -19 132 hintmask 11100000
          371 609 rmoveto
          -1 hlineto
          -4 2 -30 22 -55 7 rrcurveto
          112 vlineto
          -19 16 rlineto
          -108 hlineto
          -2 -134 rlineto
          -88 -21 -28 -65 -167 vvcurveto
          -151 27 -75 83 -27 vhcurveto
          -98 vlineto
          17 -31 rlineto
          123 hlineto
          hintmask 11010000
          -1 117 37 3 25 6 21 6 rlinecurve
          -22 callgsubr
          hintmask 11100000
          -50 callgsubr
        </CharString>
        <CharString name="circumflex">
          -103 593 -21 196 -20 hstem
          65 572 -80 callgsubr
        </CharString>
        <CharString name="colon">
          -261 -16 144 240 75 callsubr
          38 30 callgsubr
          38 56 rmoveto
          -106 callgsubr
          384 vmoveto
          -46 callgsubr
        </CharString>
        <CharString name="comma">
          -26 callsubr
        </CharString>
        <CharString name="copyright">
          265 -16 68 93 63 257 63 105 68 hstemhm
          31 68 145 113 -113 234 170 68 hintmask 11111011
          389 145 rmoveto
          32 28 4 4 29 hvcurveto
          62 vlineto
          -4 -33 -28 -3 -30 hhcurveto
          hintmask 11111101
          -26 -4 21 109 95 3 32 25 6 24 0 -5 11 hvcurveto
          46 hlineto
          13 46 rlineto
          16 -24 -32 6 -40 hhcurveto
          -112 -33 -35 -155 -145 33 -48 112 hvcurveto
          -358 197 -53 callgsubr
        </CharString>
        <CharString name="currency">
          -57 223 -21 34 95 108 95 34 -20 hstem
          63 95 110 95 vstem
          312 202 rmoveto
          77 76 rlineto
          23 vlineto
          -32 32 rlineto
          4 16 2 17 19 vvcurveto
          21 -2 20 -5 17 vhcurveto
          38 38 -76 77 rlineto
          -23 hlineto
          -30 -30 rlineto
          4 -17 -17 2 -18 hhcurveto
          -21 -19 -3 -5 -18 hvcurveto
          -41 42 -77 -76 rlineto
          -23 vlineto
          32 -32 rlineto
          -4 -16 -2 -17 -19 vvcurveto
          -21 2 -20 5 -17 vhcurveto
          -38 -38 76 -77 rlineto
          23 hlineto
          30 30 rlineto
          -4 17 17 -2 18 hhcurveto
          21 19 3 5 18 hvcurveto
          -58 195 rmoveto
          29 25 -13 -41 1 hvcurveto
          -41 -24 -13 -31 -29 -25 13 41 -1 vhcurveto
          41 24 13 31 vhcurveto
          endchar
        </CharString>
        <CharString name="d">
          77 callsubr
          17 144 112 134 vstem
          292 hmoveto
          -9 35 -7 40 68 callsubr
          vhcurveto
          433 vlineto
          -17 319 rlineto
          9 -1 -36 -41 callsubr
          -240 -48 vlineto
          -160 -48 -56 -200 -208 48 -64 95 44 24 17 30 45 hvcurveto
          -112 225 rmoveto
          136 16 24 48 vhcurveto
          48 -300 hlineto
          1 callsubr
          82 94 hvcurveto
          endchar
        </CharString>
        <CharString name="dagger">
          -107 70 callgsubr
          658 124 269 -20 hstem
          118 138 vstem
          364 512 -24 callsubr
          -92 hlineto
          -16 253 98 callgsubr
          -2 -269 rlineto
          -110 -51 callgsubr
          93 hlineto
          -5 -642 41 callsubr
          658 hlineto
          endchar
        </CharString>
        <CharString name="daggerdbl">
          -101 70 callgsubr
          273 124 261 124 269 -20 hstem
          126 133 vstem
          365 127 -24 callsubr
          -90 261 108 -15 callgsubr
          -92 hlineto
          -16 253 98 callgsubr
          -2 -269 rlineto
          -110 -51 callgsubr
          93 hlineto
          -2 -261 rlineto
          -107 -51 callgsubr
          90 hlineto
          -2 -257 41 callsubr
          273 hlineto
          endchar
        </CharString>
        <CharString name="degree">
          -174 513 76 88 76 hstem
          34 76 88 76 vstem
          34 633 rmoveto
          -93 54 -27 66 66 54 27 93 92 -54 28 -66 -66 -54 -28 -92 vhcurveto
          76 hmoveto
          34 19 10 25 24 20 -10 -34 -34 -20 -10 -24 -25 -19 10 34 vhcurveto
          endchar
        </CharString>
        <CharString name="dieresis">
          -22 624 75 callsubr
          41 39 callgsubr
          vstem
          41 696 -106 callsubr
          endchar
        </CharString>
        <CharString name="divide">
          -104 115 144 50 124 56 100 callsubr
          15 246 -144 144 hintmask 11101000
          117 187 rmoveto
          -106 callgsubr
          374 vmoveto
          -106 callgsubr
          229 -252 43 callsubr
          hintmask 11110000
          95 callsubr
          endchar
        </CharString>
        <CharString name="dollar">
          -89 -1 223 289 -20 21 -20 56 220 hstemhm
          29 120 -4 132 -33 131 hintmask 11011010
          309 511 -21 callsubr
          -4 3 -18 12 -32 9 rrcurveto
          118 -27 callsubr
          -111 hlineto
          -2 -129 rlineto
          hintmask 10111010
          -79 -13 -36 -46 -88 vvcurveto
          56 callgsubr
          vhcurveto
          -68 callsubr
          24 -31 32 -28 61 -12 rrcurveto
          -107 vlineto
          41 callsubr
          hlineto
          hintmask 10110100
          -1 129 rlineto
          hintmask 10111010
          62 26 36 63 83 vvcurveto
          56 callsubr
          vhcurveto
          -38 callsubr
          hintmask 11011010
          1 1 -1 1 hhcurveto
          endchar
        </CharString>
        <CharString name="dotaccent">
          -268 624 52 callgsubr
          696 rmoveto
          -46 callgsubr
        </CharString>
        <CharString name="dotlessi">
          5 -21 528 -35 callgsubr
          endchar
        </CharString>
        <CharString name="e">
          5 callsubr
          -104 callgsubr
          endchar
        </CharString>
        <CharString name="eacute">
          -96 callgsubr
          52 233 -78 callgsubr
        </CharString>
        <CharString name="ecircumflex">
          -96 callgsubr
          -79 269 -80 callgsubr
        </CharString>
        <CharString name="edieresis">
          5 callsubr
          36 callsubr
          -104 callgsubr
          -143 393 -106 callsubr
          endchar
        </CharString>
        <CharString name="egrave">
          -96 callgsubr
          97 254 -78 callsubr
        </CharString>
        <CharString name="eight">
          5 -16 112 575 99 hstemhm
          32 138 -116 134 112 133 -116 138 hintmask 11100100
          455 222 rmoveto
          62 -36 72 -57 44 71 callgsubr
          -78 57 -116 -129 -56 62 callgsubr
          -45 -36 -71 -62 vvcurveto
          -163 74 -75 137 150 62 100 138 vhcurveto
          hintmask 11011000
          -267 355 rmoveto
          61 26 33 29 31 26 -33 -61 -42 -20 -42 -37 -30 vhcurveto
          -36 30 -19 42 42 vvcurveto
          hintmask 11100100
          -18 -367 rmoveto
          48 27 32 46 39 vhcurveto
          46 -39 28 -32 -48 vvcurveto
          -58 -21 -56 -53 -51 -22 56 58 vhcurveto
          endchar
        </CharString>
        <CharString name="eight_onum">
          -3 -16 106 590 93 hstemhm
          33 126 -104 122 127 121 -104 126 hintmask 11100100
          447 222 rmoveto
          62 -36 72 -57 47 71 callgsubr
          -75 57 -116 -126 -53 62 callgsubr
          -48 -36 -71 -62 vvcurveto
          -163 71 -75 134 150 59 100 138 vhcurveto
          hintmask 11011000
          -270 358 rmoveto
          67 29 33 32 37 29 -33 -67 -43 -23 -44 -43 -33 vhcurveto
          -39 33 -22 42 45 vvcurveto
          hintmask 11100100
          -18 -370 rmoveto
          49 30 34 49 42 vhcurveto
          52 -42 31 -33 -50 vvcurveto
          -61 -24 -59 -59 -54 -25 59 61 vhcurveto
          endchar
        </CharString>
        <CharString name="ellipsis">
          228 -16 75 callsubr
          43 144 96 144 96 144 cntrmask 01110000
          43 56 rmoveto
          -106 callgsubr
          240 hmoveto
          -106 callgsubr
          240 hmoveto
          -46 callgsubr
        </CharString>
        <CharString name="emdash">
          263 308 59 callsubr
          700 308 -24 callsubr
          -639 -51 callgsubr
          endchar
        </CharString>
        <CharString name="endash">
          13 callgsubr
        </CharString>
        <CharString name="equal">
          -44 186 124 122 59 callsubr
          376 432 43 callsubr
          95 callsubr
          331 -246 43 callsubr
          95 callsubr
          endchar
        </CharString>
        <CharString name="eth">
          0 -16 115 306 113 235 -20 35 -20 hstemhm
          29 144 116 140 hintmask 11101100
          230 581 rmoveto
          12 -29 9 -27 2 -17 -24 10 rcurveline
          75 callgsubr
          -48 -216 -200 48 -70 152 152 48 70 200 150 -43 123 -44 103 hvcurveto
          29 11 33 12 42 11 3 47 rcurveline
          31 -8 -16 11 -21 hhcurveto
          -37 -37 -14 -13 -31 hvcurveto
          hintmask 11011100
          -18 42 -110 -31 -8 -20 23 -39 -28 -11 -33 -12 -49 -13 rlinecurve
          -11 -56 rlineto
          -29 8 10 -11 21 hhcurveto
          42 47 20 15 37 hvcurveto
          59 -327 rmoveto
          -123 -16 -32 -15 -77 -8 16 139 123 16 28 15 78 7 -19 -132 vhcurveto
          endchar
        </CharString>
        <CharString name="exclam">
          -235 -16 144 624 -20 hstem
          23 30 callgsubr
          227 723 rmoveto
          -16 16 -116 13 -32 -220 -16 -307 16 -16 99 -11 rlineto
          -139 -142 rmoveto
          -46 callgsubr
        </CharString>
        <CharString name="exclamdown">
          -235 -246 -21 635 75 callsubr
          81 30 callgsubr
          20 -221 rmoveto
          28 -35 102 -11 32 220 16 305 -14 18 -101 11 rlineto
          -2 153 rmoveto
          -46 callgsubr
        </CharString>
        <CharString name="f">
          -113 61 callsubr
          656 42 callsubr
          hintmask 11101000
          406 638 rmoveto
          9 -4 12 18 9 39 8 30 -4 7 -9 6 rrcurveto
          -1 hlineto
          3 -4 -43 31 -77 72 callgsubr
          hintmask 11110000
          -69 callgsubr
          hintmask 11101000
          -33 callgsubr
          88 vlineto
          hintmask 11100100
          42 callgsubr
          25 26 -3 -10 22 vhcurveto
          37 -15 rlineto
          -1 1 0 1 vhcurveto
          endchar
        </CharString>
        <CharString name="f_iacute">
          125 46 callsubr
          176 96 -55 callsubr
          84 callgsubr
          58 54 19 54 0 -13 50 vhcurveto
          -21 -47 67 callgsubr
          151 156 -108 60 rlineto
          3 -4 -99 13 -77 -63 callgsubr
        </CharString>
        <CharString name="f_iacute_smcp">
          115 23 callgsubr
          489 -5 callsubr
          -386 -544 -79 callgsubr
        </CharString>
        <CharString name="f_igrave">
          32 46 callsubr
          74 callgsubr
          -55 callsubr
          103 6 53 37 12 vhcurveto
          115 -120 68 callgsubr
          -51 114 -42 32 rlineto
          1 -14 -11 1 -13 -63 callgsubr
        </CharString>
        <CharString name="f_igrave_smcp">
          116 23 callgsubr
          494 -4 callgsubr
          -391 -523 -79 callgsubr
        </CharString>
        <CharString name="fi">
          38 46 callsubr
          171 101 -55 callsubr
          97 callgsubr
          25 80 1 -29 58 vhcurveto
          14 -7 9 19 9 40 8 30 -4 7 55 callsubr
          3 -4 -96 31 -77 -63 callgsubr
        </CharString>
        <CharString name="fi_smcp">
          103 -6 107 40 callgsubr
          hstemhm
          57 107 193 -14 callsubr
          hintmask 11111000
          57 13 -94 callgsubr
          327 -421 -105 callsubr
          hintmask 11110100
          -57 callgsubr
          hintmask 11111000
          -81 callsubr
          hintmask 11110100
          10 callsubr
          endchar
        </CharString>
        <CharString name="five">
          -40 -16 128 516 59 callsubr
          255 154 vstem
          44 346 36 callgsubr
          90 hlineto
          101 4 -16 -87 -84 -10 -31 -101 -40 22 88 callsubr
          -14 -3 40 hhcurveto
          211 61 111 131 80 -17 80 -45 37 hvcurveto
          -29 24 -65 1 -70 6 -17 174 rcurveline
          219 -15 callgsubr
          -325 hlineto
          endchar
        </CharString>
        <CharString name="five_onum">
          -51 -275 122 227 121 183 118 hstem
          44 126 88 142 vstem
          44 90 36 callgsubr
          84 hlineto
          110 4 -16 -90 -87 -10 -34 -110 -18 -11 0 6 -63 hvcurveto
          -118 vlineto
          -4 31 26 -6 28 hhcurveto
          208 61 111 131 157 -52 71 -177 hvcurveto
          -1 183 rlineto
          206 102 -30 callgsubr
          -316 hlineto
          endchar
        </CharString>
        <CharString name="fl">
          55 -219 -21 245 -21 432 42 callsubr
          30 135 hintmask 11110101
          491 737 rmoveto
          15 -2 -158 16 -25 72 callgsubr
          hintmask 11111001
          -69 callgsubr
          hintmask 11110101
          -33 callgsubr
          88 vlineto
          hintmask 11110011
          42 callgsubr
          16 35 -1 -4 29 vhcurveto
          -662 vlineto
          -9 55 -7 40 68 callsubr
          vhcurveto
          431 vlineto
          endchar
        </CharString>
        <CharString name="fl_smcp">
          205 5 96 -86 -21 234 96 103 95 9 -20 hstemhm
          57 107 241 106 hintmask 01110110
          57 13 -94 callgsubr
          hintmask 10101110
          360 -517 -13 callsubr
        </CharString>
        <CharString name="florin">
          85 -334 101 649 80 171 101 hstem
          220 30 callgsubr
          418 667 rmoveto
          57 callsubr
          hvcurveto
          40 hlineto
          24 80 rlineto
          0 -45 34 -80 -162 -48 -56 100 callgsubr
          60 callgsubr
          -64 80 -491 vlineto
          -114 -9 -44 -53 -20 -21 3 6 -19 vhcurveto
          -87 hlineto
          1 -25 5 -45 10 -10 rrcurveto
          -12 12 52 -18 63 hhcurveto
          162 48 48 216 hvcurveto
          486 88 80 -96 vlineto
          97 callgsubr
          vhcurveto
          endchar
        </CharString>
        <CharString name="four">
          7 21 -21 308 124 320 -20 hstem
          20 134 105 30 callgsubr
          146 736 rmoveto
          -51 callsubr
          -109 hlineto
          -1 -428 -57 callsubr
          223 -292 hlineto
          -57 callsubr
          128 308 58 -15 callgsubr
          -42 hlineto
          -16 304 -51 callsubr
          -111 hlineto
          -1 -320 rlineto
          -97 hlineto
          endchar
        </CharString>
        <CharString name="four_onum">
          1 -238 -21 259 118 378 -20 hstem
          22 130 112 132 vstem
          152 480 rmoveto
          -51 callsubr
          -113 hlineto
          -1 -480 -57 callsubr
          226 -243 hlineto
          -57 callsubr
          116 259 58 102 -30 callgsubr
          -42 362 -30 callgsubr
          -115 hlineto
          -1 -378 rlineto
          -112 hlineto
          endchar
        </CharString>
        <CharString name="fraction">
          17 65 callgsubr
          7 -130 36 callgsubr
          126 hlineto
          343 1006 -51 callsubr
          -120 hlineto
          endchar
        </CharString>
        <CharString name="g">
          4 -240 105 86 106 47 98 214 96 hstemhm
          32 133 126 145 -145 175 -154 124 hintmask 11111010
          450 448 rmoveto
          9 2 7 5 17 vvcurveto
          69 callgsubr
          vhcurveto
          -218 hlineto
          75 callgsubr
          -26 -166 -105 24 -64 66 -29 hvcurveto
          -35 -106 rlineto
          -53 -15 14 -12 83 hhcurveto
          hintmask 11111001
          132 11 9 -41 -51 -8 -3 -74 -57 -54 8 2 -30 hvcurveto
          -1 hlineto
          -9 1 -6 -13 -41 vvcurveto
          -40 6 -4 9 -2 vhcurveto
          -5 26 53 -11 59 hhcurveto
          162 48 52 107 128 -33 8 -202 2 hvcurveto
          9 47 rlineto
          22 hlineto
          152 48 66 150 52 -11 39 -17 28 hvcurveto
          43 8 rlineto
          -282 -127 rmoveto
          93 7 3 85 vhcurveto
          hintmask 11111100
          17 17 -3 -93 -116 -8 -2 -84 -17 -17 2 116 hvcurveto
          endchar
        </CharString>
        <CharString name="germandbls">
          125 -65 -21 70 106 569 101 hstemhm
          43 137 62 120 -3 109 -11 131 hintmask 11110100
          43 -70 rmoveto
          -9 62 -7 40 40 -4 7 9 vhcurveto
          -2 566 rlineto
          84 callgsubr
          45 70 65 37 -7 -70 vhcurveto
          hintmask 11111010
          -86 -117 -2 -134 vvcurveto
          56 callgsubr
          vhcurveto
          -10 callsubr
          -30 12 32 -40 vhcurveto
          -8 hlineto
          -54 -53 rlineto
          -20 vlineto
          0 callgsubr
          56 callsubr
          hvcurveto
          -61 30 -52 16 27 vvcurveto
          hintmask 11110100
          62 113 8 -7 149 vhcurveto
          132 -6 -67 36 -126 hhcurveto
          -178 -48 -48 -216 hvcurveto
          endchar
        </CharString>
        <CharString name="grave">
          85 callgsubr
          212 -4 callgsubr
          endchar
        </CharString>
        <CharString name="greater">
          -86 61 -21 696 -20 hstem
          95 40 rmoveto
          54 13 218 278 20 49 -20 49 -202 294 -54 13 -64 -39 193 -317 -209 -301 rlineto
          endchar
        </CharString>
        <CharString name="guillemotleft">
          109 38 callgsubr
          553 195 -34 callsubr
          -208 39 -34 callsubr
          endchar
        </CharString>
        <CharString name="guillemotright">
          109 38 callgsubr
          70 156 -34 callgsubr
          272 -39 -34 callgsubr
          endchar
        </CharString>
        <CharString name="guilsinglleft">
          -147 38 callgsubr
          301 195 -34 callsubr
          endchar
        </CharString>
        <CharString name="guilsinglright">
          -147 38 callgsubr
          66 156 -34 callgsubr
          endchar
        </CharString>
        <CharString name="h">
          -18 72 callsubr
          256 -20 87 callsubr
          169 752 rmoveto
          9 -1 -43 -41 callsubr
          -752 -62 callsubr
          -30 -43 -22 -27 -42 vhcurveto
          endchar
        </CharString>
        <CharString name="hungarumlaut">
          32 571 -21 211 -20 hstem
          102 550 51 callgsubr
          319 -32 51 callgsubr
          endchar
        </CharString>
        <CharString name="hyphen">
          -99 308 59 callsubr
          337 308 -24 callsubr
          -276 -51 callgsubr
          endchar
        </CharString>
        <CharString name="i">
          -255 5 -21 528 98 callsubr
          -58 callgsubr
          -10 200 rmoveto
          -46 callgsubr
        </CharString>
        <CharString name="iacute">
          -53 callsubr
          84 40 -78 callgsubr
        </CharString>
        <CharString name="icircumflex">
          -53 callsubr
          -58 76 -80 callgsubr
        </CharString>
        <CharString name="idieresis">
          5 -21 528 98 callsubr
          hstemhm
          -75 144 -22 136 -24 144 hintmask 11101000
          -60 callgsubr
          hintmask 11110100
          -122 200 -106 callsubr
          endchar
        </CharString>
        <CharString name="igrave">
          -53 callsubr
          93 61 -78 callsubr
        </CharString>
        <CharString name="j">
          -266 63 callgsubr
          134 vstem
          57 -224 rmoveto
          -9 1 37 -7 40 hhcurveto
          41 callgsubr
          720 vlineto
          9 -54 -90 callsubr
          -496 vlineto
          -7 696 rmoveto
          -46 callgsubr
        </CharString>
        <CharString name="k">
          4 46 callgsubr
          45 136 -1 callgsubr
          -752 vlineto
          -9 56 -7 40 68 callsubr
          vhcurveto
          431 vlineto
          152 -431 rmoveto
          -9 4 62 54 callgsubr
          9 -4 hvcurveto
          -149 304 113 192 rlineto
          9 5 -59 18 callgsubr
          -4 -7 -9 -5 hvcurveto
          90 callgsubr
          0 vhcurveto
          -106 -191 rlineto
          -32 vlineto
          130 -271 rlineto
          endchar
        </CharString>
        <CharString name="l">
          -260 66 callsubr
          135 -1 callgsubr
          -752 vlineto
          -9 55 -7 40 68 callsubr
          vhcurveto
          431 vlineto
          endchar
        </CharString>
        <CharString name="less">
          -86 61 -21 696 -20 hstem
          365 79 rmoveto
          -209 301 193 317 -64 39 -54 -13 -202 -294 -20 -49 20 -49 218 -278 54 -13 rlineto
          endchar
        </CharString>
        <CharString name="logicalnot">
          39 158 -21 171 59 callsubr
          350 124 vstem
          475 416 rmoveto
          -51 callsubr
          -450 -51 callgsubr
          325 -155 hlineto
          -57 callsubr
          108 hlineto
          endchar
        </CharString>
        <CharString name="lslash">
          -28 7 callsubr
          157 135 vstem
          274 -11 callgsubr
          -335 vlineto
          -146 -39 27 -101 16 -16 103 28 rlineto
          -289 vlineto
          -9 55 -7 40 68 callsubr
          vhcurveto
          325 vlineto
          153 42 -28 104 -19 11 -107 -29 rlineto
          endchar
        </CharString>
        <CharString name="m">
          263 72 callsubr
          94 callgsubr
          112 144 cntrmask 00111000
          557 hmoveto
          -9 64 -15 callsubr
          -35 -53 -30 -34 -49 vhcurveto
          47 -23 -40 17 -56 hhcurveto
          73 callgsubr
          hvcurveto
          52 callsubr
          9 -5 -27 -41 callsubr
          -496 -32 callgsubr
          12 3 -37 -38 1 hvcurveto
          -341 vlineto
          -9 64 32 callsubr
          27 -2 24 -3 22 vhcurveto
          22 37 36 17 28 hhcurveto
          16 0 -66 -46 hvcurveto
          endchar
        </CharString>
        <CharString name="minus">
          13 callgsubr
        </CharString>
        <CharString name="mu">
          -17 -218 -21 244 -21 22 -21 527 -20 hstemhm
          45 122 -122 34 callsubr
          hintmask 11010110
          333 hmoveto
          -9 6 26 -7 40 hhcurveto
          -66 callsubr
          -28 -16 -28 -17 -30 -3 rrcurveto
          -21 -5 37 75 -41 callgsubr
          -719 vlineto
          -9 9 -7 31 40 36 7 9 1 vhcurveto
          hintmask 10111010
          11 208 rlineto
          52 52 18 28 35 hvcurveto
          endchar
        </CharString>
        <CharString name="multiply">
          -55 206 -21 358 -20 hstem
          129 541 rmoveto
          -24 hlineto
          -65 -64 rlineto
          -23 vlineto
          85 -85 -96 -96 88 -87 96 96 97 -97 87 88 -97 96 85 85 rlineto
          24 vlineto
          -64 65 rlineto
          -23 hlineto
          -86 -86 rlineto
          endchar
        </CharString>
        <CharString name="n">
          6 72 callsubr
          87 callsubr
          -56 callsubr
          endchar
        </CharString>
        <CharString name="nine">
          -28 5 -21 250 113 308 115 hstem
          24 146 116 138 vstem
          424 498 rmoveto
          200 -48 72 -152 75 callgsubr
          -72 -200 -216 48 -48 152 vhcurveto
          24 10 -7 -55 -62 -111 -23 -46 rlinecurve
          16 -16 92 -32 16 16 rlineto
          52 128 92 136 234 vvcurveto
          -138 hmoveto
          -132 -7 -19 -78 -15 -16 28 123 139 8 18 77 15 16 -34 -123 vhcurveto
          endchar
        </CharString>
        <CharString name="nine_onum">
          -38 -258 -21 255 107 320 109 hstem
          23 134 131 126 vstem
          414 240 rmoveto
          200 -48 72 -149 -146 -48 -72 -200 -205 60 -55 131 -4 vhcurveto
          10 4 17 5 9 4 -7 -48 -45 -89 -42 -82 16 -16 rcurveline
          91 -33 rlineto
          94 207 57 124 188 vvcurveto
          -126 hmoveto
          -138 -7 -19 -87 -18 -19 28 129 145 8 18 86 18 19 -37 -126 vhcurveto
          endchar
        </CharString>
        <CharString name="ntilde">
          6 72 callsubr
          96 29 callsubr
          65 callsubr
          hintmask 11101100
          -56 callsubr
          -30 112 -82 callgsubr
          endchar
        </CharString>
        <CharString name="numbersign">
          241 70 callgsubr
          274 124 120 124 224 -20 hstem
          301 28 callsubr
          hlineto
          63 274 rlineto
          144 -15 callgsubr
          -100 hlineto
          28 120 rlineto
          143 -15 callgsubr
          -99 hlineto
          47 208 -51 callsubr
          -109 hlineto
          -55 -224 rlineto
          -121 hlineto
          49 208 -51 callsubr
          -111 hlineto
          -55 -224 rlineto
          -120 -51 callgsubr
          73 hlineto
          -29 -120 rlineto
          -115 -51 callgsubr
          68 hlineto
          -64 -258 -57 callsubr
          125 hlineto
          63 274 rlineto
          114 hlineto
          -58 244 rmoveto
          118 hlineto
          -29 -120 rlineto
          -117 hlineto
          endchar
        </CharString>
        <CharString name="o">
          25 callsubr
          -94 callsubr
          endchar
        </CharString>
        <CharString name="oacute">
          -83 callgsubr
          83 286 -78 callgsubr
        </CharString>
        <CharString name="ocircumflex">
          -83 callgsubr
          -61 322 -80 callgsubr
        </CharString>
        <CharString name="odieresis">
          25 callsubr
          36 callsubr
          hstemhm
          37 136 -136 155 101 144 hintmask 11110100
          -100 callgsubr
          -125 446 rmoveto
          -74 callgsubr
          vhcurveto
          hintmask 11101100
          -6 callgsubr
        </CharString>
        <CharString name="oe">
          234 29 callgsubr
          113 96 hstem
          40 136 119 144 101 133 vstem
          667 -90 callgsubr
          126 -1 hvcurveto
          1 3 rlineto
          153 -55 callgsubr
          -52 -39 -6 -18 -29 hvcurveto
          18 -31 -40 6 -54 hhcurveto
          -152 -9 callgsubr
          152 55 41 9 20 30 hvcurveto
          -20 29 39 -9 51 hhcurveto
          17 callgsubr
          -491 250 rmoveto
          146 7 20 81 14 15 -25 -105 2 vhcurveto
          -36 vlineto
          -14 0 -13 1 -12 vhcurveto
          -118 -2 -14 -11 -72 hhcurveto
          -16 -16 32 136 hvcurveto
          263 131 50 callgsubr
        </CharString>
        <CharString name="ogonek">
          -258 -286 240 -76 76 46 -20 hstemhm
          20 76 -76 120 -120 178 hintmask 10100100
          198 hmoveto
          hintmask 10101000
          -58 -46 hlineto
          -66 -1 -54 -27 -92 vvcurveto
          -94 54 -26 66 vhcurveto
          75 vlineto
          hintmask 01110000
          -24 -20 11 34 hvcurveto
          hintmask 01101000
          34 20 10 24 vhcurveto
          hintmask 01100100
          58 hlineto
          endchar
        </CharString>
        <CharString name="ograve">
          -83 callgsubr
          92 307 -78 callsubr
        </CharString>
        <CharString name="one">
          -60 0 124 628 -20 hstem
          157 143 vstem
          68 571 rmoveto
          89 18 rlineto
          -465 -114 -108 8 callgsubr
          339 -15 callgsubr
          -81 hlineto
          -1 308 -16 304 -16 16 -235 -62 rlineto
          endchar
        </CharString>
        <CharString name="one_onum">
          -85 0 118 393 -20 hstem
          155 118 vstem
          66 349 rmoveto
          89 18 rlineto
          -249 -114 -102 8 callgsubr
          314 102 -30 callgsubr
          -81 hlineto
          -1 377 -16 16 -226 -61 rlineto
          endchar
        </CharString>
        <CharString name="onehalf">
          512 81 callgsubr
          876 -20 hstemhm
          53 79 callgsubr
          620 128 hintmask 11101100
          261 -114 21 callsubr
          -459 -263 66 callgsubr
          hintmask 11110100
          10 callgsubr
          hintmask 11101100
          45 callgsubr
          777 -229 -43 callgsubr
        </CharString>
        <CharString name="onequarter">
          505 81 callgsubr
          876 -20 hstemhm
          54 79 callgsubr
          377 127 76 128 hintmask 11101110
          723 548 rmoveto
          -51 callsubr
          -110 hlineto
          -1 -317 -57 callsubr
          187 -215 hlineto
          -57 callsubr
          112 231 44 77 -30 callgsubr
          -28 224 -30 callgsubr
          -111 hlineto
          -1 -240 rlineto
          -76 hlineto
          -673 289 66 callgsubr
          hintmask 11110110
          10 callgsubr
          hintmask 11101110
          45 callgsubr
          209 -817 21 callsubr
          endchar
        </CharString>
        <CharString name="onesuperior">
          -192 209 -21 566 -20 hstemhm
          55 79 callgsubr
          hintmask 11010000
          51 613 66 callgsubr
          hintmask 11100000
          10 callgsubr
          hintmask 11010000
          45 callgsubr
          endchar
        </CharString>
        <CharString name="ordfeminine">
          -137 354 74 248 76 hstem
          35 83 84 102 vstem
          156 676 rmoveto
          35 9 -12 -67 1 hvcurveto
          -107 -28 rlineto
          -30 -11 -29 -24 -48 vvcurveto
          -117 33 -15 79 18 25 14 21 24 vhcurveto
          12 -23 rlineto
          77 hlineto
          1 188 rlineto
          162 -36 36 -121 -60 -34 -26 0 vhcurveto
          18 -60 rlineto
          30 hlineto
          8 16 20 2 19 hhcurveto
          46 -134 rmoveto
          -102 -12 -12 -40 vhcurveto
          -18 1 -14 13 43 vvcurveto
          25 31 24 53 8 vhcurveto
          endchar
        </CharString>
        <CharString name="ordmasculine">
          -12 176 98 386 96 hstem
          36 7 callgsubr
          vstem
          36 452 rmoveto
          -200 48 -76 152 152 48 108 168 166 -48 138 -152 75 callgsubr
          -88 -20 callsubr
          62 81 16 16 -72 -136 -154 -8 -24 -80 -16 -16 42 136 vhcurveto
          endchar
        </CharString>
        <CharString name="oslash">
          -36 -146 228 -98 98 336 95 207 -20 hstemhm
          23 7 callgsubr
          hintmask 10111100
          23 250 rmoveto
          -115 16 -71 42 -39 vhcurveto
          -35 -139 rlineto
          -32 136 vlineto
          hintmask 01111100
          30 130 rlineto
          11 hlineto
          152 48 66 200 150 -24 69 -66 28 hvcurveto
          28 116 rlineto
          107 -105 vlineto
          -52 -207 rlineto
          -137 -4 -44 -53 -206 12 callsubr
        </CharString>
        <CharString name="otilde">
          25 callsubr
          96 29 callsubr
          37 7 callgsubr
          hintmask 11101100
          -100 callgsubr
          -53 358 -82 callgsubr
          endchar
        </CharString>
        <CharString name="p">
          -29 61 callsubr
          224 96 336 96 hstem
          45 134 36 callsubr
          vstem
          147 89 callsubr
          9 -5 -17 -41 callsubr
          -720 vlineto
          -9 54 -7 40 68 callsubr
          vhcurveto
          208 48 vlineto
          160 48 56 200 208 -48 64 -95 73 callgsubr
          hvcurveto
          -19 38 rlineto
          0 -1 1 1 vvcurveto
          144 -256 rmoveto
          -136 -16 -24 -48 vhcurveto
          -48 300 hlineto
          21 35 35 15 26 hhcurveto
          16 0 -82 -94 hvcurveto
          endchar
        </CharString>
        <CharString name="paragraph">
          221 21 -21 635 101 hstem
          203 143 68 143 vstem
          203 16 36 callgsubr
          128 hlineto
          -1 635 rlineto
          69 hlineto
          -1 -619 -57 callsubr
          128 hlineto
          -1 635 rlineto
          116 85 -30 callgsubr
          -425 84 callsubr
          179 hlineto
          endchar
        </CharString>
        <CharString name="parenleft">
          -139 85 callsubr
          26 157 vstem
          305 -37 rmoveto
          -118 -4 151 241 183 6 163 101 hvcurveto
          -2 135 rlineto
          -200 -62 -166 -315 -291 61 -240 217 hvcurveto
          1 hlineto
          endchar
        </CharString>
        <CharString name="parenright">
          -140 85 callsubr
          159 157 vstem
          37 -176 rmoveto
          1 hlineto
          217 61 240 27 callgsubr
          -62 166 -200 hvcurveto
          -2 -135 rlineto
          101 6 -163 -183 -241 -4 -151 -118 hvcurveto
          endchar
        </CharString>
        <CharString name="percent">
          216 49 callgsubr
          24 93 callsubr
          hintmask 1011111111000000
          179 16 rmoveto
          hintmask 0111111111000000
          -57 callsubr
          109 hlineto
          221 704 -51 callsubr
          -102 hlineto
          hintmask 1011111111000000
          -383 -182 rmoveto
          -77 callgsubr
          -17 -36 -20 -18 callgsubr
          -17 -36 -20 57 callgsubr
          endchar
        </CharString>
        <CharString name="period">
          -268 -16 52 callgsubr
          56 rmoveto
          -46 callgsubr
        </CharString>
        <CharString name="periodcentered">
          -268 223 52 callgsubr
          295 rmoveto
          -46 callgsubr
        </CharString>
        <CharString name="perthousand">
          493 49 callgsubr
          30 93 callsubr
          41 83 74 83 hintmask 1011111111110000
          184 16 rmoveto
          hintmask 0111111111110000
          -57 callsubr
          110 hlineto
          192 613 rlineto
          107 -89 vlineto
          hintmask 1011111111110000
          -383 -182 rmoveto
          -77 callgsubr
          -9 -36 -28 -18 callgsubr
          -9 -36 -28 57 callgsubr
          198 hmoveto
          -77 callgsubr
          -9 -36 -28 57 callgsubr
          endchar
        </CharString>
        <CharString name="plus">
          -55 192 -21 137 124 136 -20 hstem
          151 124 vstem
          275 551 rmoveto
          -17 17 -107 -1 rlineto
          -135 -136 -108 8 callgsubr
          120 -121 hlineto
          -57 callsubr
          108 137 137 -15 callgsubr
          -121 hlineto
          endchar
        </CharString>
        <CharString name="plusminus">
          -27 160 124 184 124 136 -20 hstem
          165 124 vstem
          289 711 rmoveto
          -17 17 rlineto
          -107 -136 -136 -51 callgsubr
          120 -121 hlineto
          -57 callsubr
          108 137 137 -15 callgsubr
          -121 hlineto
          137 -432 -24 callsubr
          -381 -51 callgsubr
          endchar
        </CharString>
        <CharString name="q">
          -29 61 callsubr
          225 96 336 95 hstem
          17 144 126 120 vstem
          289 -224 rmoveto
          -9 38 -7 40 68 callsubr
          vhcurveto
          717 vlineto
          0 -59 19 -61 vhcurveto
          -62 hlineto
          -160 -48 -55 -248 -160 48 -64 95 33 49 1 30 45 hvcurveto
          -126 193 rmoveto
          184 16 24 48 vhcurveto
          62 -300 hlineto
          -21 -35 -49 -15 -26 hhcurveto
          -16 0 82 46 hvcurveto
          endchar
        </CharString>
        <CharString name="question">
          -44 -16 144 501 123 hstem
          127 141 8 30 callgsubr
          127 218 36 callgsubr
          120 89 hlineto
          157 175 0 25 46 vvcurveto
          145 -47 70 -185 21 callgsubr
          21 5 63 hhcurveto
          60 5 -33 -58 -56 -21 -26 -85 -88 hvcurveto
          -20 -21 -23 -24 -26 vvcurveto
          -3 -241 rmoveto
          -46 callgsubr
        </CharString>
        <CharString name="questiondown">
          -43 -272 123 517 75 callsubr
          19 144 13 30 callsubr
          312 279 rmoveto
          -51 callsubr
          -120 -106 hlineto
          -157 -175 0 -26 -45 vvcurveto
          -145 47 -70 185 72 53 9 26 40 vhcurveto
          -28 101 rlineto
          -49 hlineto
          -8 -27 -21 -5 -63 hhcurveto
          -60 -5 33 58 56 21 26 85 88 hvcurveto
          20 21 23 24 26 vvcurveto
          -146 257 rmoveto
          -46 callgsubr
        </CharString>
        <CharString name="quotedbl">
          -159 544 -21 229 -20 hstem
          42 89 60 89 vstem
          100 523 rmoveto
          -4 callsubr
          175 hmoveto
          -4 callsubr
          endchar
        </CharString>
        <CharString name="quotedblbase">
          -24 -107 -21 18 callsubr
          44 144 96 30 callgsubr
          69 -128 -61 callsubr
          266 -17 -61 callsubr
          endchar
        </CharString>
        <CharString name="quotedblleft">
          -32 38 callsubr
          136 768 4 callsubr
          160 9 4 callsubr
          endchar
        </CharString>
        <CharString name="quotedblright">
          -32 38 callsubr
          104 530 5 callgsubr
          260 -9 5 callgsubr
          endchar
        </CharString>
        <CharString name="quoteleft">
          -265 38 callsubr
          120 768 4 callsubr
          endchar
        </CharString>
        <CharString name="quoteright">
          -266 38 callsubr
          97 530 5 callgsubr
          endchar
        </CharString>
        <CharString name="quotesinglbase">
          -26 callsubr
        </CharString>
        <CharString name="quotesingle">
          -320 544 -21 229 -20 hstem
          36 89 vstem
          94 523 rmoveto
          -4 callsubr
          endchar
        </CharString>
        <CharString name="r">
          -114 5 -21 393 135 -113 113 hstemhm
          45 129 hintmask 10110000
          142 89 callsubr
          9 -4 -13 -41 callsubr
          -496 vlineto
          -9 49 -7 40 68 callsubr
          vhcurveto
          368 vlineto
          25 41 11 6 17 hhcurveto
          hintmask 11010000
          31 14 -22 24 hhcurveto
          21 6 8 88 20 hvcurveto
          0 -32 39 -54 -29 -44 -30 -26 -38 vhcurveto
          -20 38 rlineto
          endchar
        </CharString>
        <CharString name="registered">
          265 -16 68 417 63 101 68 hstem
          31 68 161 97 45 105 141 68 vstem
          420 161 36 callgsubr
          95 hlineto
          -72 163 rlineto
          25 20 23 33 56 vvcurveto
          79 -31 36 -109 -40 -67 -13 0 vhcurveto
          -358 8 callgsubr
          81 144 7 hlineto
          -7 169 rmoveto
          6 1 3 5 32 hhcurveto
          4 5 -17 -35 -40 -13 -13 -15 -1 hvcurveto
          -5 -6 1 2 -5 hvcurveto
          -327 -24 -53 callgsubr
        </CharString>
        <CharString name="ring">
          -220 560 102 callgsubr
          hstem
          35 102 callgsubr
          vstem
          35 656 -72 callgsubr
          endchar
        </CharString>
        <CharString name="s">
          -67 -16 106 326 96 93 callgsubr
          320 379 -75 callsubr
        </CharString>
        <CharString name="scaron">
          -61 -16 106 326 96 249 -20 93 callgsubr
          43 729 -43 callsubr
          238 -382 -75 callsubr
        </CharString>
        <CharString name="section">
          -36 -16 106 562 96 hstemhm
          40 119 -91 120 67 131 -98 126 hintmask 11100100
          288 377 rmoveto
          -26 -2 -28 -64 -25 -38 21 29 29 21 13 24 1 vhcurveto
          25 59 -5 -34 hvcurveto
          60 238 -17 callgsubr
          hintmask 11011000
          -119 -54 -44 -108 -39 21 -33 29 -26 hvcurveto
          hintmask 11101000
          -54 -21 -24 -44 -73 vvcurveto
          56 callgsubr
          vhcurveto
          -66 callgsubr
          28 -17 28 -23 24 hvcurveto
          hintmask 11010100
          43 32 25 55 69 vvcurveto
          56 callsubr
          vhcurveto
          -33 callsubr
        </CharString>
        <CharString name="semicolon">
          -276 -107 -21 256 240 0 100 callsubr
          44 144 hintmask 10110000
          44 440 rmoveto
          -106 callgsubr
          23 -568 -10 callgsubr
          hintmask 11010000
          -52 callsubr
          endchar
        </CharString>
        <CharString name="seven">
          -35 21 -21 628 59 callsubr
          36 16 36 callgsubr
          127 hlineto
          186 432 68 197 rlineto
          107 vlineto
          -15 16 rlineto
          -357 -51 callgsubr
          221 hlineto
          endchar
        </CharString>
        <CharString name="seven_onum">
          -32 -239 -21 637 119 hstem
          36 -244 36 callgsubr
          114 hlineto
          273 635 rlineto
          105 -27 callsubr
          -363 -103 hlineto
          -57 callsubr
          224 hlineto
          endchar
        </CharString>
        <CharString name="six">
          -27 -16 98 336 96 254 -20 hstem
          33 7 callgsubr
          vstem
          33 -67 callgsubr
          48 -152 vhcurveto
          -24 -10 7 55 22 70 23 46 rlinecurve
          20 47 -16 16 -121 30 rlineto
          -52 -162 -59 -185 -171 12 callsubr
        </CharString>
        <CharString name="six_onum">
          -38 -16 92 348 90 18 callsubr
          32 124 135 132 vstem
          32 250 rmoveto
          -200 48 -66 146 149 48 66 200 205 -60 55 -134 4 vhcurveto
          -33 -13 9 80 34 79 31 66 rlinecurve
          -16 16 -112 28 rlineto
          -50 -160 -60 -193 -167 vvcurveto
          124 hmoveto
          152 7 22 90 19 19 -32 -142 -160 -8 -14 -89 -19 -19 32 142 vhcurveto
          endchar
        </CharString>
        <CharString name="slash">
          -88 65 callgsubr
          8 28 callsubr
          hlineto
          237 1006 -51 callsubr
          -110 hlineto
          endchar
        </CharString>
        <CharString name="space">
          -216 endchar
        </CharString>
        <CharString name="sterling">
          13 69 callsubr
          183 124 289 119 hstemhm
          85 144 -144 157 hintmask 11110000
          106 hmoveto
          367 105 -30 callgsubr
          -227 hlineto
          -1 183 rlineto
          87 -15 callgsubr
          hintmask 11101000
          -58 hlineto
          177 11 111 94 1 vhcurveto
          103 vlineto
          -16 16 -187 -5 -58 -103 -1 -300 rlinecurve
          -61 -51 callgsubr
          50 -288 hlineto
          endchar
        </CharString>
        <CharString name="t">
          -145 96 callsubr
          128 -20 -9 callsubr
          -135 248 hintmask 11110000
          141 -16 rmoveto
          -74 callsubr
          97 vlineto
          hintmask 11100100
          9 7 12 28 31 -7 9 -9 hvcurveto
          -96 -65 callgsubr
          -80 -16 rlineto
          hintmask 11110000
          -69 callgsubr
          hintmask 11101000
          80 -335 hlineto
          -19 callgsubr
          endchar
        </CharString>
        <CharString name="t_i">
          38 -11 -21 37 82 callsubr
          128 144 -9 callsubr
          98 153 -136 136 hintmask 01111010
          326 696 rmoveto
          -106 callgsubr
          hintmask 01110101
          17 -696 rmoveto
          -9 56 -7 40 68 callsubr
          vhcurveto
          468 vlineto
          25 -56 3 -40 vhcurveto
          -154 -65 callgsubr
          -80 -16 rlineto
          hintmask 01111010
          -69 callgsubr
          hintmask 01110110
          80 -335 hlineto
          48 -97 rlineto
          hintmask 10111010
          -9 4 19 -21 callgsubr
          hintmask 01111001
          -2 callsubr
          endchar
        </CharString>
        <CharString name="t_i_smcp">
          103 13 callsubr
          24 callsubr
          hintmask 10111000
          384 -19 callsubr
          hintmask 10110100
          -57 callgsubr
          hintmask 10111000
          -81 callsubr
          hintmask 10110100
          10 callsubr
          -269 -74 rmoveto
          hintmask 01111000
          -85 callsubr
          hintmask 10111000
          -71 callsubr
        </CharString>
        <CharString name="t_iacute">
          142 19 callsubr
          440 533 -102 callgsubr
          -51 -554 rmoveto
          -62 callgsubr
          endchar
        </CharString>
        <CharString name="t_iacute_smcp">
          93 20 callgsubr
          483 -5 callsubr
          -53 -456 -79 callsubr
        </CharString>
        <CharString name="t_igrave">
          36 19 callsubr
          343 hmoveto
          -62 callgsubr
          104 138 -78 callsubr
        </CharString>
        <CharString name="t_igrave_smcp">
          98 20 callgsubr
          485 -4 callgsubr
          -55 -435 -79 callsubr
        </CharString>
        <CharString name="t_t_i">
          292 96 callsubr
          128 144 -9 callsubr
          117 135 99 152 -136 136 hintmask 11110101
          141 -16 rmoveto
          -74 callsubr
          117 -335 vlineto
          -19 callgsubr
          -74 callsubr
          115 -432 vlineto
          -9 56 -7 40 68 callsubr
          vhcurveto
          11 callgsubr
          8 -53 7 -39 1 vhcurveto
          -158 -65 callgsubr
          rlineto
          -116 -73 callsubr
          hintmask 11101110
          79 callsubr
          hintmask 11110110
          -69 callgsubr
          hintmask 11101110
          80 -335 hlineto
          -19 callgsubr
          438 712 rmoveto
          -46 callgsubr
        </CharString>
        <CharString name="t_t_i_smcp">
          419 13 callsubr
          3 callgsubr
          hintmask 10111100
          722 101 -84 callsubr
          -285 -74 rmoveto
          hintmask 01111100
          -81 callgsubr
          hintmask 10111100
          -71 callsubr
        </CharString>
        <CharString name="t_t_iacute">
          385 -93 callsubr
          536 -59 callsubr
          endchar
        </CharString>
        <CharString name="t_t_iacute_smcp">
          422 9 callgsubr
          796 -5 callsubr
          -28 -456 -92 callsubr
        </CharString>
        <CharString name="t_t_igrave">
          289 -93 callsubr
          540 -44 callgsubr
          endchar
        </CharString>
        <CharString name="t_t_igrave_smcp">
          435 9 callgsubr
          822 -4 callgsubr
          -54 -435 -92 callsubr
        </CharString>
        <CharString name="thorn">
          -40 -218 -21 223 96 336 96 28 callgsubr
          hstemhm
          45 123 -123 135 111 144 hintmask 11111010
          162 752 rmoveto
          9 -37 -90 callsubr
          -974 vlineto
          -10 55 -7 40 vhcurveto
          hintmask 11110110
          41 callgsubr
          218 vlineto
          -4 31 46 -7 35 hhcurveto
          24 callgsubr
          -52 hlineto
          52 -96 rmoveto
          33 callgsubr
          -95 336 hlineto
          endchar
        </CharString>
        <CharString name="three">
          2 -16 128 203 128 186 123 hstemhm
          276 154 -134 154 hintmask 11110000
          237 629 rmoveto
          26 13 -29 -58 -97 -33 -2 -108 hvcurveto
          -128 72 vlineto
          hintmask 11101000
          101 -12 -15 -87 -84 -10 -17 -85 -40 -26 88 callsubr
          34 -3 40 hhcurveto
          211 45 97 131 80 -17 66 -45 37 hvcurveto
          hintmask 11110000
          30 39 12 50 57 vvcurveto
          145 -39 66 -187 21 callgsubr
          31 5 63 hhcurveto
          endchar
        </CharString>
        <CharString name="three_onum">
          -38 -259 122 212 125 195 117 hstemhm
          266 125 -106 125 hintmask 11110000
          215 395 rmoveto
          34 17 -32 -61 -100 -29 -2 -108 hvcurveto
          -110 vlineto
          14 -15 rlineto
          44 hlineto
          hintmask 11101000
          99 0 -12 -93 -1 hvcurveto
          -87 -9 -20 -95 -38 -14 1 5 -76 vhcurveto
          -118 vlineto
          -7 59 29 -3 34 hhcurveto
          193 42 97 131 78 -15 66 -45 42 hvcurveto
          -1 hlineto
          hintmask 11110000
          31 41 11 50 55 vvcurveto
          145 -36 66 -171 -59 -51 -10 -21 -36 vhcurveto
          27 -99 rlineto
          31 hlineto
          8 25 33 5 61 hhcurveto
          endchar
        </CharString>
        <CharString name="threequarters">
          556 81 callgsubr
          180 96 -45 93 97 96 142 93 124 -20 hstemhm
          200 143 -128 143 287 127 76 128 hintmask 1110111101100000
          303 -114 21 callsubr
          -382 -217 60 callsubr
          hintmask 1110111011100000
          -3 callsubr
          hintmask 1101111101100000
          27 31 9 38 40 vvcurveto
          109 -44 53 -148 -25 callsubr
          604 -111 rmoveto
          -51 callsubr
          -110 hlineto
          -1 -317 -57 callsubr
          187 -215 hlineto
          -57 callsubr
          112 231 44 77 -30 callgsubr
          -28 224 -30 callgsubr
          -111 hlineto
          -1 -240 rlineto
          -76 hlineto
          endchar
        </CharString>
        <CharString name="threesuperior">
          -69 180 96 145 96 142 93 hstemhm
          221 143 -128 143 hintmask 11110000
          189 659 60 callsubr
          hintmask 11101000
          -3 callsubr
          hintmask 11110000
          27 31 9 38 40 vvcurveto
          109 -44 53 -148 -25 callsubr
          endchar
        </CharString>
        <CharString name="tilde">
          -41 608 29 callsubr
          hintmask 10000000
          105 608 rmoveto
          hintmask 01000000
          -60 callsubr
          hintmask 10000000
          -58 callsubr
          endchar
        </CharString>
        <CharString name="trademark">
          217 389 -21 299 85 hstem
          119 100 128 101 106 100 vstem
          34 683 36 callgsubr
          69 -283 hlineto
          -57 callsubr
          85 hlineto
          -1 299 rlineto
          84 69 -30 callgsubr
          -253 hlineto
          443 -225 rmoveto
          44 hlineto
          33 65 rlineto
          -208 8 callgsubr
          84 204 hlineto
          -11 164 -51 callsubr
          -73 hlineto
          -53 -131 -46 115 -51 callsubr
          -92 -368 hlineto
          -57 callsubr
          85 218 hlineto
          endchar
        </CharString>
        <CharString name="two">
          -7 0 131 498 123 hstem
          274 30 callgsubr
          225 629 rmoveto
          60 -11 -17 -58 -97 -54 -74 -181 -259 hvcurveto
          -124 396 115 -27 callsubr
          -210 hlineto
          229 309 -20 56 57 vvcurveto
          145 -15 54 -185 21 callgsubr
          5 5 63 hhcurveto
          endchar
        </CharString>
        <CharString name="two_onum">
          -56 0 115 280 117 hstem
          267 120 vstem
          39 16 rmoveto
          15 -16 rlineto
          334 99 hlineto
          -15 16 rlineto
          -197 hlineto
          138 112 73 62 73 vvcurveto
          80 -63 70 -129 -58 -50 -10 -22 -35 vhcurveto
          25 -98 rlineto
          36 hlineto
          9 27 10 4 51 hhcurveto
          36 31 -29 -16 -1 hvcurveto
          -4 -60 -192 -109 -32 -64 rrcurveto
          endchar
        </CharString>
        <CharString name="twosuperior">
          -66 185 99 375 93 hstem
          240 128 vstem
          201 659 -43 callgsubr
        </CharString>
        <CharString name="u">
          5 -16 96 -59 -21 512 44 callsubr
          hintmask 01111000
          330 hmoveto
          hintmask 10111000
          -9 6 26 -21 callgsubr
          hintmask 01111000
          -66 callsubr
          hintmask 10111000
          -89 callgsubr
          hintmask 01111000
          0 99 callsubr
          endchar
        </CharString>
        <CharString name="uacute">
          -95 callgsubr
          -62 -5 callsubr
          endchar
        </CharString>
        <CharString name="ucircumflex">
          -95 callgsubr
          -212 572 -80 callgsubr
        </CharString>
        <CharString name="udieresis">
          15 callsubr
          132 100 callsubr
          42 143 -131 144 100 144 hintmask 01111010
          330 hmoveto
          hintmask 10111010
          -9 6 26 -21 callgsubr
          hintmask 01111010
          -66 callsubr
          hintmask 10111010
          -89 callgsubr
          hintmask 01110110
          0 99 callsubr
          -42 696 rmoveto
          -106 callgsubr
          -234 hmoveto
          -46 callgsubr
        </CharString>
        <CharString name="ugrave">
          -95 callgsubr
          -67 -4 callgsubr
          endchar
        </CharString>
        <CharString name="underscore">
          5 0 59 callsubr
          426 hmoveto
          53 callsubr
          -381 -124 hlineto
          endchar
        </CharString>
        <CharString name="v">
          -12 80 callsubr
          158 89 callsubr
          -29 callsubr
          148 -494 rlineto
          -9 3 69 -8 callsubr
          125 494 rlineto
          0 1 1 1 vvcurveto
          -22 callsubr
          -374 rlineto
          endchar
        </CharString>
        <CharString name="w">
          252 80 callsubr
          165 89 callsubr
          -29 callsubr
          148 -494 rlineto
          -9 3 69 -8 callsubr
          45 180 54 -180 rlineto
          -9 3 69 -8 callsubr
          125 494 rlineto
          0 1 1 1 vvcurveto
          -22 callsubr
          -353 -69 273 rlineto
          10 -3 -62 6 -17 hhcurveto
          -44 5 -10 -6 -2 hvcurveto
          -59 -271 rlineto
          endchar
        </CharString>
        <CharString name="x">
          35 80 callsubr
          181 89 callsubr
          9 -5 -50 18 callgsubr
          -14 -7 -9 5 hvcurveto
          133 -235 -153 -261 rlineto
          -9 -5 77 -21 callgsubr
          31 2 7 9 5 hvcurveto
          1 vlineto
          80 143 80 -143 rlineto
          -1 1 0 0 vhcurveto
          -9 5 63 -21 callgsubr
          31 14 7 9 -5 hvcurveto
          -151 261 107 231 2 4 rlineto
          9 3 -53 18 callgsubr
          -5 -7 -9 -4 hvcurveto
          -1 -2 -60 -132 -71 133 rlineto
          endchar
        </CharString>
        <CharString name="y">
          -22 80 callgsubr
          hstem
          -86 callsubr
          endchar
        </CharString>
        <CharString name="yacute">
          -22 80 callgsubr
          276 -20 hstem
          -86 callsubr
          127 760 -78 callgsubr
        </CharString>
        <CharString name="ydieresis">
          -22 63 callgsubr
          39 callgsubr
          vstem
          -86 callsubr
          -92 920 -106 callsubr
          endchar
        </CharString>
        <CharString name="yen">
          102 5 -21 212 124 78 124 90 callsubr
          hstem
          245 117 vstem
          530 398 -24 callsubr
          -64 hlineto
          107 209 -5 callgsubr
          -104 -212 rlineto
          -32 hlineto
          -120 209 rlineto
          -31 callsubr
          119 -210 rlineto
          -44 -51 callgsubr
          -16 -78 rmoveto
          -108 8 callgsubr
          127 -174 hlineto
          -31 37 -16 callgsubr
          175 168 108 -27 callsubr
          endchar
        </CharString>
        <CharString name="z">
          -62 0 112 278 106 hstem
          50 390 rmoveto
          186 hlineto
          -194 -294 rlineto
          -80 8 callgsubr
          320 hlineto
          9 1 7 31 40 vvcurveto
          69 callgsubr
          vhcurveto
          -190 hlineto
          174 278 rlineto
          90 -27 callsubr
          -296 hlineto
          -9 -6 -12 -41 hvcurveto
          -39 -1 7 -14 9 hhcurveto
          endchar
        </CharString>
        <CharString name="zcaron">
          -68 0 112 278 106 265 -20 hstem
          50 390 rmoveto
          186 hlineto
          -194 -294 rlineto
          -80 8 callgsubr
          320 hlineto
          9 1 7 31 40 vvcurveto
          69 callgsubr
          vhcurveto
          -190 hlineto
          174 278 rlineto
          90 -27 callsubr
          -296 hlineto
          -9 -6 -12 -41 hvcurveto
          -39 -1 7 -14 9 hhcurveto
          -7 339 -43 callsubr
          endchar
        </CharString>
        <CharString name="zero">
          38 -16 154 469 145 hstem
          37 143 163 140 vstem
          37 76 callgsubr
          -291 53 -96 170 171 52 96 27 callgsubr
          -52 66 -171 -170 -53 -66 -315 vhcurveto
          143 1 rmoveto
          212 6 23 118 26 13 -39 -196 -220 -9 -14 -117 -24 -13 37 197 vhcurveto
          endchar
        </CharString>
        <CharString name="zero_onum">
          35 -16 103 326 99 hstem
          37 123 200 120 vstem
          37 247 rmoveto
          -198 53 -65 169 169 52 65 198 214 -52 51 -169 -169 -53 -51 -214 vhcurveto
          123 1 rmoveto
          146 17 19 82 86 15 -30 -135 -152 -15 -9 -86 -83 -16 25 136 vhcurveto
          endchar
        </CharString>
      <CharString index="0">
        290 hmoveto
        -9 22 -7 40 68 callsubr
        vhcurveto
        2 250 rlineto
        58 callsubr
        -162 -74 -44 -29 -4 -6 vhcurveto
        90 callgsubr
        0 vhcurveto
        -8 -6 -3 -10 12 -39 11 -38 8 -6 8 5 rrcurveto
        1 hlineto
        35 14 rlineto
        -92 callgsubr
        25 33 18 29 32 vhcurveto
        -16 203 -76 callgsubr
        return
      </CharString>
      <CharString index="1">
        -74 callgsubr
        -107 callsubr
        vhcurveto
        return
      </CharString>
      <CharString index="2">
        -23 -5 -21 -29 1 hvcurveto
        -33 1 8 -13 21 hhcurveto
        126 hlineto
        35 4 37 29 1 hvcurveto
        18 -8 10 -22 2 vhcurveto
        -13 hlineto
        -7 326 rlineto
        9 hlineto
        25 5 35 31 hvcurveto
        return
      </CharString>
      <CharString index="3">
        hstem
        37 144 101 133 vstem
        409 -98 callsubr
        -142 -9 callgsubr
        142 17 callgsubr
        -228 381 -47 callgsubr
        return
      </CharString>
      <CharString index="4">
        56 -32 16 -40 -40 -32 -16 -56 return
      </CharString>
      <CharString index="5">
        rmoveto
        160 172 -108 60 -42 -32 -57 -124 1 -55 rlineto
        return
      </CharString>
      <CharString index="6">
        rmoveto
        125 81 125 -81 39 32 -13 54 -102 90 -49 20 -49 -20 -102 -90 -13 -54 rlineto
        return
      </CharString>
      <CharString index="7">
        37 -67 callgsubr
        46 -152 -152 -48 -46 -20 callsubr
        20 81 16 16 -30 -56 callgsubr
        return
      </CharString>
      <CharString index="8">
        -47 17 callsubr
        256 -20 -103 callsubr
        return
      </CharString>
      <CharString index="9">
        rmoveto
        -70 callgsubr
        -355 -736 hlineto
        -87 callgsubr
        endchar
      </CharString>
      <CharString index="10">
        rmoveto
        -99 callsubr
      </CharString>
      <CharString index="11">
        5 callsubr
        256 -20 -104 callgsubr
        return
      </CharString>
      <CharString index="12">
        15 callsubr
        276 44 callsubr
        hintmask 01111100
        330 hmoveto
        hintmask 10111100
        -9 6 26 -21 callgsubr
        hintmask 01111100
        -66 callsubr
        hintmask 10111100
        -89 callgsubr
        hintmask 01111100
        0 99 callsubr
        return
      </CharString>
      <CharString index="13">
        rmoveto
        -10 42 -9 32 33 0 9 10 vhcurveto
        215 126 vlineto
        34 6 15 51 17 -8 13 -27 hvcurveto
        -133 hlineto
        -4 103 rlineto
        132 hlineto
        42 4 16 50 1 hvcurveto
        1 19 -8 9 -37 1 rrcurveto
        -236 hlineto
        return
      </CharString>
      <CharString index="14">
        rmoveto
        -200 43 -65 139 138 44 65 47 callsubr
        -44 56 -138 -139 -43 -56 100 callgsubr
        122 1 rmoveto
        162 return
      </CharString>
      <CharString index="15">
        10 22 26 3 25 hhcurveto
        47 12 -14 -89 2 hvcurveto
        -143 -37 rlineto
        -40 -15 -39 -32 -64 vvcurveto
        -156 44 -20 105 return
      </CharString>
      <CharString index="16">
        rmoveto
        -52 callgsubr
        -85 callgsubr
      </CharString>
      <CharString index="17">
        hmoveto
        -80 callsubr
        -1 hhcurveto
        -3 -11 -53 -10 -115 hhcurveto
        -36 -9 12 return
      </CharString>
      <CharString index="18">
        1 callsubr
        66 46 -41 callgsubr
        -304 vlineto
        -160 48 -48 95 32 46 16 31 46 vhcurveto
        20 -30 rlineto
        return
      </CharString>
      <CharString index="19">
        712 -106 callsubr
        return
      </CharString>
      <CharString index="20">
        -57 callsubr
        352 hlineto
        38 7 24 62 22 -9 12 -33 1 hvcurveto
        -231 213 196 -28 callsubr
        return
      </CharString>
      <CharString index="21">
        250 9 40 150 33 16 -58 -232 -259 -11 -17 -148 -32 -17 43 233 vhcurveto
        return
      </CharString>
      <CharString index="22">
        -243 -501 hlineto
        12 -16 -54 callgsubr
        127 -32 callsubr
        endchar
      </CharString>
      <CharString index="23">
        -105 callsubr
        hintmask 11101000
        -57 callgsubr
        hintmask 11110000
        -81 callsubr
        hintmask 11101000
        10 callsubr
        endchar
      </CharString>
      <CharString index="24">
        25 callsubr
        256 -20 -94 callsubr
        return
      </CharString>
      <CharString index="25">
        rmoveto
        hintmask 11011100
        -60 callsubr
        hintmask 11101100
        -58 callsubr
        return
      </CharString>
      <CharString index="26">
        -91 callsubr
        -346 -400 rmoveto
        -85 callsubr
        return
      </CharString>
      <CharString index="27">
        -101 callgsubr
        endchar
      </CharString>
      <CharString index="28">
        -94 callgsubr
        341 -421 -105 callsubr
        hintmask 11111010
        -57 callgsubr
        hintmask 11111100
        -81 callsubr
        hintmask 11111010
        10 callsubr
        endchar
      </CharString>
      <CharString index="29">
        -102 callgsubr
        endchar
      </CharString>
      <CharString index="30">
        -118 40 -34 80 80 40 34 118 117 -40 35 -80 -80 -40 -35 -117 vhcurveto
        83 hmoveto
        39 16 30 21 32 5 -9 -55 -38 return
      </CharString>
      <CharString index="31">
        rmoveto
        -136 -16 -16 -54 vhcurveto
        -23 2 -19 17 57 vvcurveto
        34 41 32 71 10 vhcurveto
        return
      </CharString>
      <CharString index="32">
        rmoveto
        -27 30 -7 31 33 0 7 26 vhcurveto
        213 vlineto
        131 256 rlineto
        30 13 -32 5 -32 hhcurveto
        -31 -12 -5 -22 -9 hvcurveto
        1 vlineto
        -73 -148 -84 147 1 -1 rlineto
        27 -12 -40 1 -10 hhcurveto
        -31 -30 -8 -26 14 hvcurveto
        143 -253 rlineto
        endchar
      </CharString>
      <CharString index="33">
        -56 32 -16 40 return
      </CharString>
      <CharString index="34">
        40 1 7 9 -1 hvcurveto
        1 vlineto
        -16 113 rlineto
        318 return
      </CharString>
      <CharString index="35">
        -45 callsubr
        61 hmoveto
        27 15 8 20 19 16 -8 -27 -27 -16 -8 -19 -20 -15 8 27 vhcurveto
        return
      </CharString>
      <CharString index="36">
        rmoveto
        -34 -3 29 0 49 hhcurveto
        32 2 7 22 2 hvcurveto
        19 133 rlineto
        return
      </CharString>
      <CharString index="37">
        -193 hlineto
        -11 177 rlineto
        223 -47 callsubr
        return
      </CharString>
      <CharString index="38">
        -9 -2 -6 -10 -34 vvcurveto
        -18 6 0 9 vhcurveto
        return
      </CharString>
      <CharString index="39">
        rmoveto
        -29 -29 -6 -13 31 -36 rrcurveto
        -48 44 70 -41 123 hhcurveto
        153 55 100 146 107 -67 49 -91 47 hvcurveto
        -93 44 -54 40 55 vvcurveto
        59 36 26 34 20 42 -10 -13 35 vhcurveto
        55 -21 1 4 25 71 10 29 -20 9 -21 9 rrcurveto
        15 -30 -46 18 -59 hhcurveto
        -146 -84 -61 -154 -91 93 -85 74 -40 hvcurveto
        81 -44 51 -30 -53 vvcurveto
        -52 -9 -48 -78 -40 -43 19 39 -50 vhcurveto
        -26 18 -13 -7 -28 -28 rrcurveto
        endchar
      </CharString>
      <CharString index="40">
        250 rmoveto
        -200 48 -66 152 152 48 66 47 callsubr
        -48 return
      </CharString>
      <CharString index="41">
        -68 callsubr
        rrcurveto
        0 callgsubr
        return
      </CharString>
      <CharString index="42">
        -73 callsubr
        -56 -113 return
      </CharString>
      <CharString index="43">
        40 0 7 return
      </CharString>
      <CharString index="44">
        72 callgsubr
        hintmask 11111010
        -69 callgsubr
        hintmask 11110110
        -33 callgsubr
        115 vlineto
        endchar
      </CharString>
      <CharString index="45">
        -9 56 -7 40 68 callsubr
        vhcurveto
        468 vlineto
        25 -56 3 -40 vhcurveto
        -154 -65 callgsubr
        -80 -16 rlineto
        hintmask 01111010
        -69 callgsubr
        hintmask 01110110
        80 -335 hlineto
        48 -97 rlineto
        hintmask 10111010
        -9 4 19 -21 callgsubr
        hintmask 01111010
        -2 callsubr
        return
      </CharString>
      <CharString index="46">
        -31 -9 -7 -9 return
      </CharString>
      <CharString index="47">
        47 hmoveto
        -9 56 -7 40 68 callsubr
        vhcurveto
        67 callsubr
        -56 -90 callsubr
        return
      </CharString>
      <CharString index="48">
        -67 callsubr
        vhcurveto
        return
      </CharString>
      <CharString index="49">
        hstem
        47 30 callsubr
        -60 callgsubr
        return
      </CharString>
      <CharString index="50">
        23 -14 6 -22 vhcurveto
        -118 hlineto
        return
      </CharString>
      <CharString index="51">
        -136 -154 -8 -14 -80 -16 -16 32 136 vhcurveto
        return
      </CharString>
      <CharString index="52">
        hlineto
        45 35 8 8 hvcurveto
        227 2 -48 46 -142 hhcurveto
        return
      </CharString>
      <CharString index="53">
        rlineto
        240 -48 callsubr
        return
      </CharString>
      <CharString index="54">
        rmoveto
        -198 144 -160 198 198 145 160 198 198 -145 161 -198 -198 -144 -161 -198 vhcurveto
        68 hmoveto
        160 114 131 160 160 115 -131 -160 -160 -115 -130 -160 -160 -114 130 160 vhcurveto
        endchar
      </CharString>
      <CharString index="55">
        -48 callgsubr
        91 callgsubr
        -29 1 hvcurveto
        return
      </CharString>
      <CharString index="56">
        -108 hlineto
        -57 callsubr
        return
      </CharString>
      <CharString index="57">
        -54 -16 32 136 84 callgsubr
        43 82 callgsubr
        hvcurveto
        35 -14 rlineto
        1 hlineto
        8 -3 10 7 9 30 12 38 -3 18 -8 4 rrcurveto
        endchar
      </CharString>
      <CharString index="58">
        588 -101 callgsubr
        return
      </CharString>
      <CharString index="59">
        -121 hlineto
        -6 103 58 callgsubr
        37 2 34 31 return
      </CharString>
      <CharString index="60">
        rmoveto
        24 34 14 44 8 12 -24 -92 3 vhcurveto
        -101 hlineto
        return
      </CharString>
      <CharString index="61">
        -106 callgsubr
        endchar
      </CharString>
      <CharString index="62">
        -7 31 35 0 7 27 vhcurveto
        return
      </CharString>
      <CharString index="63">
        573 -101 callsubr
        return
      </CharString>
      <CharString index="64">
        rmoveto
        36 3 -24 -44 -50 -27 -34 -56 -73 hvcurveto
        -118 -159 rlineto
        -74 8 callgsubr
        325 84 hlineto
        -15 15 rlineto
        -180 hlineto
        168 226 15 40 40 vvcurveto
        109 -38 53 -146 -25 callsubr
        endchar
      </CharString>
      <CharString index="65">
        -31 callsubr
        218 -383 rlineto
        return
      </CharString>
      <CharString index="66">
        hvcurveto
        -1 304 rlineto
        9 -63 -90 callsubr
        return
      </CharString>
      <CharString index="67">
        5 -21 528 -20 return
      </CharString>
      <CharString index="68">
        rmoveto
        -237 hlineto
        277 527 rlineto
        88 -27 callsubr
        -402 hlineto
        -32 -6 -24 -23 callgsubr
        5 -15 36 -1 rrcurveto
        256 hlineto
        -284 -510 rlineto
        -106 8 callgsubr
        390 hlineto
        44 6 49 40 -14 callgsubr
        -47 1 vhcurveto
        endchar
      </CharString>
      <CharString index="69">
        123 hstem
        35 159 vstem
        431 118 rmoveto
        -6 -61 -47 -4 -36 hhcurveto
        -79 -14 42 222 193 13 80 71 -27 callgsubr
        -199 -62 -82 -315 return
      </CharString>
      <CharString index="70">
        -12 269 rlineto
        63 -2 -16 7 -56 hhcurveto
        -40 -16 -7 -39 hvcurveto
        endchar
      </CharString>
      <CharString index="71">
        rmoveto
        -352 vlineto
        -245 -10 -16 -126 -28 -15 41 281 vhcurveto
        return
      </CharString>
      <CharString index="72">
        -20 -58 callgsubr
        return
      </CharString>
      <CharString index="73">
        rmoveto
        54 13 186 166 20 49 -20 49 -170 166 -54 13 -32 -39 161 -189 -177 -189 rlineto
        return
      </CharString>
      <CharString index="74">
        80 -640 hlineto
        -9 35 callsubr
        9 vhcurveto
        640 return
      </CharString>
      <CharString index="75">
        vlineto
        -8 callgsubr
        380 vlineto
        21 35 35 15 26 hhcurveto
        return
      </CharString>
      <CharString index="76">
        -31 37 -16 callgsubr
        328 vlineto
        return
      </CharString>
      <CharString index="77">
        hlineto
        -51 callsubr
        return
      </CharString>
      <CharString index="78">
        813 -101 callsubr
        return
      </CharString>
      <CharString index="79">
        hlineto
        33 0 20 44 17 -6 15 -29 hvcurveto
        return
      </CharString>
      <CharString index="80">
        16 77 -7 -8 40 hvcurveto
        30 -5 6 16 20 58 6 18 -5 11 -8 6 rrcurveto
        26 -38 -58 8 -68 hhcurveto
        return
      </CharString>
      <CharString index="81">
        -489 -25 callgsubr
        257 -632 -97 callgsubr
      </CharString>
      <CharString index="82">
        hlineto
        -29 -36 callsubr
        33 -1 rrcurveto
        125 hlineto
        return
      </CharString>
      <CharString index="83">
        21 rmoveto
        -30 35 callsubr
        32 vhcurveto
        -1 407 -9 203 return
      </CharString>
      <CharString index="84">
        -39 1 hvcurveto
        1 -41 return
      </CharString>
      <CharString index="85">
        -80 callsubr
        0 hvcurveto
        -6 -30 -37 -7 -57 hhcurveto
        return
      </CharString>
      <CharString index="86">
        -7 40 hhcurveto
        return
      </CharString>
      <CharString index="87">
        219 22 rmoveto
        -31 8 42 -7 69 hhcurveto
        33 5 7 30 7 hvcurveto
        return
      </CharString>
      <CharString index="88">
        47 -95 rlineto
        22 callgsubr
        -1 vhcurveto
        return
      </CharString>
      <CharString index="89">
        57 callgsubr
        325 -370 rmoveto
        -77 callgsubr
        return
      </CharString>
      <CharString index="90">
        -21 callsubr
        5 -6 -43 29 -76 hhcurveto
        return
      </CharString>
      <CharString index="91">
        -7 40 -64 callgsubr
        30 vhcurveto
        return
      </CharString>
      <CharString index="92">
        108 -30 callgsubr
        return
      </CharString>
      <CharString index="93">
        1 hvcurveto
        19 -9 12 return
      </CharString>
      <CharString index="94">
        119 hstem
        45 141 188 161 vstem
        45 hmoveto
        -12 136 39 -4 44 hhcurveto
        210 61 108 27 callgsubr
        -61 70 -210 -67 -152 -17 0 hvcurveto
        return
      </CharString>
      <CharString index="95">
        6 callgsubr
        hstem
        176 140 117 -18 callsubr
        return
      </CharString>
      <CharString index="96">
        752 rmoveto
        9 -1 -36 -41 callsubr
        return
      </CharString>
      <CharString index="97">
        rmoveto
        100 128 rlineto
        12 11 7 18 27 vvcurveto
        return
      </CharString>
      <CharString index="98">
        47 callgsubr
        -200 48 -66 return
      </CharString>
      <CharString index="99">
        -9 64 -7 40 68 callsubr
        vhcurveto
        return
      </CharString>
      <CharString index="100">
        -35 callsubr
        -15 -7 -27 return
      </CharString>
      <CharString index="101">
        -107 callsubr
        hvcurveto
        23 callsubr
      </CharString>
      <CharString index="102">
        rlineto
        30 14 -39 -7 callgsubr
        -11 hvcurveto
        return
      </CharString>
      <CharString index="103">
        557 -101 callsubr
        return
      </CharString>
      <CharString index="104">
        136 hmoveto
        146 7 return
      </CharString>
      <CharString index="105">
        -146 3 callsubr
        hintmask 11011000
        1 callgsubr
        return
      </CharString>
      <CharString index="106">
        vstem
        162 -11 callgsubr
        return
      </CharString>
      <CharString index="107">
        -42 33 47 -35 111 hhcurveto
        101 62 75 109 return
      </CharString>
      <CharString index="108">
        34 -8 -7 callsubr
        -30 7 hvcurveto
        return
      </CharString>
      <CharString index="109">
        69 callsubr
        511 120 return
      </CharString>
      <CharString index="110">
        hstemhm
        108 110 236 110 131 -14 callsubr
        return
      </CharString>
      <CharString index="111">
        -73 callgsubr
        115 return
      </CharString>
      <CharString index="112">
        rmoveto
        110 208 -120 30 -32 -42 -23 -134 15 -53 rlineto
        return
      </CharString>
      <CharString index="113">
        -40 callgsubr
        140 120 return
      </CharString>
      <CharString index="114">
        136 120 144 return
      </CharString>
      <CharString index="115">
        vlineto
        -57 callsubr
        return
      </CharString>
      <CharString index="116">
        13 callsubr
        90 callsubr
        3 callgsubr
        hintmask 10111110
        return
      </CharString>
      <CharString index="117">
        -38 -77 hlineto
        -57 callsubr
        186 77 -30 callgsubr
        -20 hlineto
        return
      </CharString>
      <CharString index="118">
        496 vlineto
        return
      </CharString>
      <CharString index="119">
        6 callgsubr
        16 -20 hstemhm
        243 117 199 136 hintmask 11101100
        507 632 rmoveto
        return
      </CharString>
      <CharString index="120">
        74 308 59 callsubr
        511 308 -24 callsubr
        -450 -51 callgsubr
        endchar
      </CharString>
      <CharString index="121">
        hlineto
        26 callgsubr
        return
      </CharString>
      <CharString index="122">
        hstemhm
        4 236 -141 141 return
      </CharString>
      <CharString index="123">
        15 -21 537 -20 hstem
        return
      </CharString>
      <CharString index="124">
        141 41 16 0 hvcurveto
        return
      </CharString>
      <CharString index="125">
        -39 callsubr
        -31 return
      </CharString>
      <CharString index="126">
        -9 60 -7 40 68 callsubr
        vhcurveto
        334 139 -334 vlineto
        -9 56 -7 40 68 callsubr
        vhcurveto
        return
      </CharString>
      <CharString index="127">
        13 callsubr
        90 callsubr
        24 callsubr
        hintmask 10111100
        return
      </CharString>
      <CharString index="128">
        -72 -53 -9 -26 -40 vhcurveto
        28 -101 rlineto
        49 hlineto
        8 27 return
      </CharString>
      <CharString index="129">
        0 0 -1 1 return
      </CharString>
      <CharString index="130">
        -6 107 40 callgsubr
        90 callsubr
        hstemhm
        57 107 207 -14 callsubr
        hintmask 11111100
        return
      </CharString>
      <CharString index="131">
        95 48 64 208 200 -48 56 -160 hvcurveto
        return
      </CharString>
      <CharString index="132">
        5 96 40 callgsubr
        return
      </CharString>
      <CharString index="133">
        73 callsubr
        -29 -6 hvcurveto
        return
      </CharString>
      <CharString index="134">
        291 315 return
      </CharString>
      <CharString index="135">
        256 -20 return
      </CharString>
      <CharString index="136">
        -16 98 141 80 return
      </CharString>
      <CharString index="137">
        144 vstem
        return
      </CharString>
      <CharString index="138">
        -63 39 callsubr
        253 -20 hstem
        26 33 callsubr
        vstem
        return
      </CharString>
      <CharString index="139">
        16 callsubr
        675 -20 hstem
        return
      </CharString>
      <CharString index="140">
        48 16 -24 -136 -94 0 -82 -16 hvcurveto
        return
      </CharString>
      <CharString index="141">
        159 208 156 return
      </CharString>
      <CharString index="142">
        -16 125 659 -20 return
      </CharString>
      <CharString index="143">
        rmoveto
        -57 callsubr
        return
      </CharString>
      <CharString index="144">
        127 96 103 return
      </CharString>
      <CharString index="145">
        177 -21 456 -20 hstem
        return
      </CharString>
      <CharString index="146">
        144 90 144 return
      </CharString>
      <CharString index="147">
        37 callgsubr
        95 return
      </CharString>
      <CharString index="148">
        68 callsubr
        hvcurveto
        return
      </CharString>
      <CharString index="149">
        71 callsubr
        97 callgsubr
        return
      </CharString>
      <CharString index="150">
        48 hlineto
        33 callgsubr
        -96 hlineto
        endchar
      </CharString>
      <CharString index="151">
        40 callsubr
        262 -20 hstemhm
        return
      </CharString>
      <CharString index="152">
        -1 457 -16 16 -180 -51 rlineto
        return
      </CharString>
      <CharString index="153">
        -40 callgsubr
        276 -20 hstem
        return
      </CharString>
      <CharString index="154">
        -48 83 callsubr
        return
      </CharString>
      <CharString index="155">
        69 -21 callgsubr
        return
      </CharString>
      <CharString index="156">
        16 83 -78 -21 237 83 66 83 138 83 30 -20 hstemhm
        return
      </CharString>
      <CharString index="157">
        -47 callgsubr
        endchar
      </CharString>
      <CharString index="158">
        rmoveto
        135 125 -57 86 -49 -20 -87 -105 -13 -54 rlineto
        return
      </CharString>
      <CharString index="159">
        75 callsubr
        35 30 callgsubr
        35 return
      </CharString>
      <CharString index="160">
        60 64 callsubr
        return
      </CharString>
      <CharString index="161">
        22 callsubr
        4 7 return
      </CharString>
      <CharString index="162">
        144 36 callsubr
        return
      </CharString>
      <CharString index="163">
        -68 65 -50 57 -28 return
      </CharString>
      <CharString index="164">
        -21 -16 16 53 vhcurveto
        return
      </CharString>
      <CharString index="165">
        rlineto
        140 hlineto
        return
      </CharString>
      <CharString index="166">
        115 136 return
      </CharString>
      <CharString index="167">
        -80 -16 rlineto
        return
      </CharString>
      <CharString index="168">
        -6 0 15 hvcurveto
        190 vlineto
        23 10 0 92 22 28 return
      </CharString>
      <CharString index="169">
        -96 -112 -58 31 -62 39 -42 vhcurveto
        hintmask 11100100
        -56 return
      </CharString>
      <CharString index="170">
        80 callgsubr
        132 75 callsubr
        41 return
      </CharString>
      <CharString index="171">
        -221 rmoveto
        -2 -1 0 2 hvcurveto
        127 vlineto
        6 return
      </CharString>
      <CharString index="172">
        70 callgsubr
        1022 -20 hstem
        return
      </CharString>
      <CharString index="173">
        rmoveto
        42 13 rlineto
        -345 vlineto
        return
      </CharString>
      <CharString index="174">
        1 -55 46 -21 return
      </CharString>
      <CharString index="175">
        46 21 1 55 return
      </CharString>
      <CharString index="176">
        31 -7 9 -9 return
      </CharString>
      <CharString index="177">
        -125 -21 return
      </CharString>
      <CharString index="178">
        vhcurveto
        hintmask 11011000
        40 42 31 62 58 vvcurveto
        151 return
      </CharString>
      <CharString index="179">
        hhcurveto
        -162 -45 48 callsubr
        hvcurveto
        60 callgsubr
        return
      </CharString>
      <CharString index="180">
        -33 -47 -26 -30 -45 return
      </CharString>
      <CharString index="181">
        272 -20 return
      </CharString>
      <CharString index="182">
        -152 -48 return
      </CharString>
      <CharString index="183">
        371 rmoveto
        return
      </CharString>
      <CharString index="184">
        68 callgsubr
        rlineto
        129 -57 -13 11 return
      </CharString>
      <CharString index="185">
        73 callsubr
        -27 -11 hvcurveto
        return
      </CharString>
      <CharString index="186">
        202 -164 127 return
      </CharString>
      <CharString index="187">
        61 callsubr
        752 -20 return
      </CharString>
      <CharString index="188">
        70 callgsubr
        167 -21 return
      </CharString>
      <CharString index="189">
        54 57 callsubr
        return
      </CharString>
      <CharString index="190">
        hstem
        45 140 return
      </CharString>
      <CharString index="191">
        118 8 return
      </CharString>
      <CharString index="192">
        -242 557 -21 232 -20 hstem
        return
      </CharString>
      <CharString index="193">
        -146 124 803 59 callsubr
        return
      </CharString>
      <CharString index="194">
        hstem
        40 148 151 154 vstem
        return
      </CharString>
      <CharString index="195">
        -140 124 797 59 callsubr
        return
      </CharString>
      <CharString index="196">
        1 -13 hhcurveto
        return
      </CharString>
      <CharString index="197">
        -1 -1 0 return
      </CharString>
      <CharString index="198">
        17 -8 12 return
      </CharString>
      <CharString index="199">
        67 callgsubr
        143 159 return
      </CharString>
      <CharString index="200">
        hstem
        40 120 95 131 vstem
        return
      </CharString>
      <CharString index="201">
        hstem
        65 callsubr
        return
      </CharString>
      <CharString index="202">
        27 hhcurveto
        37 3 12 25 -12 hvcurveto
        return
      </CharString>
      <CharString index="203">
        -137 239 rlineto
        return
      </CharString>
      <CharString index="204">
        84 callgsubr
        53 54 return
      </CharString>
      <CharString index="205">
        -51 callsubr
        -100 hlineto
        return
      </CharString>
      <CharString index="206">
        31 -77 hhcurveto
        -162 return
      </CharString>
      <CharString index="207">
        -216 vhcurveto
        return
      </CharString>
      <CharString index="208">
        216 -48 return
      </CharString>
      <CharString index="209">
        61 70 61 return
      </CharString>
</ttFont>
